<svg width="733" height="286" viewBox="0 0 733 286" fill="none" xmlns="http://www.w3.org/2000/svg">
<path opacity="0.08" d="M389.252 -536.894C392.003 -537.47 392.29 -535.599 392.481 -533.633C438.746 -389.325 505.726 -294.854 592.705 -196.882C675.928 -103.155 772.165 -14.393 780.035 149.581C786.207 278.444 729.919 382.627 670.235 447.454C603.637 519.836 495.512 569.649 382.793 567.275C266.917 564.805 172.068 513.576 105.04 437.765C38.2743 362.265 -7.60729 266.692 1.69821 136.606C15.3574 -54.5891 158.648 -147.956 250.387 -268.113C310.024 -346.299 351.647 -427.17 389.252 -536.894ZM150.251 175.507C151.4 262.783 198.477 342.455 263.305 382.747C354.757 439.564 481.972 425.006 557.206 350.322C596.915 310.941 623.875 255.971 631.482 175.507C531.059 175.507 508.142 174.02 391.453 174.02C391.453 94.1317 392.505 9.25458 392.505 -70.586C252.971 -70.9458 148.553 44.3662 150.251 175.507Z" fill="#E6E5F7"/>
</svg>
