<svg width="82" height="83" viewBox="0 0 82 83" fill="none" xmlns="http://www.w3.org/2000/svg">
<path fill-rule="evenodd" clip-rule="evenodd" d="M34.5535 52.2471C37.7589 52.4218 37.9744 48.6744 35.004 48.0551C31.4093 47.3257 30.7726 52.3447 34.5535 52.2471ZM4.15234 58.818C4.58095 57.5153 5.50565 56.3396 5.08816 54.9452C5.26524 53.9225 4.27612 53.3162 4.32798 52.2958C4.4401 50.5874 4.13256 48.7684 4.75207 47.1427C4.85804 46.8873 4.82561 46.7697 4.6282 46.5669C4.12452 46.0492 4.33512 45.2117 5.02049 45.0158C10.687 44.1939 16.4325 43.6327 22.154 43.328C23.0682 43.1245 22.331 44.5153 23.1244 44.3775C26.7907 44.138 30.469 44.2427 34.1333 44.0221C35.3796 44.2644 41.2603 43.3322 41.1722 44.517C42.0743 47.6542 41.9575 50.9512 42.0671 54.1843C42.1837 59.9094 41.127 63.1209 35.2236 59.0725C33.9874 58.1042 28.4067 52.6697 27.2189 54.607C26.4179 57.1781 24.3235 58.5013 22.2997 56.1663C21.2287 54.8368 20.1803 53.1716 18.5302 52.581C14.4315 51.559 10.6204 55.2549 9.04942 58.7089C8.15254 60.3453 7.96038 63.4916 5.54215 63.375C3.50916 63.5866 4.61736 60.2209 4.15234 58.818Z" fill="#59E9D3"/>
<path fill-rule="evenodd" clip-rule="evenodd" d="M4.11953 58.8494C4.47728 63.6371 4.4976 68.4251 4.95579 73.2074C5.31038 74.6033 4.87261 78.2116 5.84923 78.9668C16.9549 79.4453 28.1443 79.0619 39.2536 78.462C40.6964 78.4435 42.9709 77.6205 43.3573 79.628C43.5691 80.9412 41.6631 80.7717 40.8849 81.3859C40.1978 81.7417 39.3947 81.6427 38.6569 81.5253C32.3974 80.9449 26.0774 81.5481 19.7962 81.5765C15.3599 81.5889 10.9892 82.6149 6.55254 82.0103C5.64664 81.9823 6.20373 83.1514 4.88588 82.582C3.88416 82.4476 3.89319 82.4466 3.73703 81.5092C3.23684 79.1655 2.99731 76.7801 2.79653 74.3967C2.29581 66.9092 1.57371 59.4184 1.57524 51.9029C1.46306 48.2571 1.33544 44.6307 1.71704 40.9958C1.81811 40.5227 1.66601 39.8117 2.18769 39.5811C4.82284 40.1117 3.43943 55.8135 4.11953 58.8494Z" fill="#E94668"/>
<path fill-rule="evenodd" clip-rule="evenodd" d="M51.7381 39.8857C51.4813 42.0363 52.8228 46.3834 49.4884 46.3846C48.1848 46.1019 42.2405 47.179 42.3592 45.8052C40.9687 43.8546 43.937 44.4721 42.9136 43.0755C41.2438 40.8039 42.7296 37.0865 40.4258 37.8239C37.2449 38.5313 35.8303 36.5416 35.6641 33.5941C35.7555 31.1528 40.1913 32.711 41.7998 32.4263C44.6457 32.4064 47.4006 33.0898 50.1715 33.6367C52.9049 34.288 51.4586 37.9418 51.7381 39.8857Z" fill="#462949"/>
<path fill-rule="evenodd" clip-rule="evenodd" d="M36.3076 65.7912C37.9366 65.5994 40.2892 66.6368 39.2066 68.5101C38.3611 69.4787 40.8949 70.5807 39.1281 71.7191C37.4615 72.629 35.4304 72.5073 33.5889 72.7628C32.2063 72.6241 31.1619 74.6116 29.8543 73.8068C29.1695 72.1883 29.8213 70.3081 29.7713 68.5937C29.6888 67.0739 30.5596 66.1072 32.1222 66.2108C33.4691 66.0646 34.984 65.864 36.3076 65.7912Z" fill="#462949"/>
<path fill-rule="evenodd" clip-rule="evenodd" d="M34.5807 52.2249C30.7623 52.3212 31.4057 47.3489 35.036 48.0719C38.0357 48.6865 37.8175 52.3982 34.5807 52.2249Z" fill="#462949"/>
<path fill-rule="evenodd" clip-rule="evenodd" d="M4.07959 56.1774C4.33928 57.2314 3.6882 63.3181 4.73907 63.1063C5.53143 62.7692 6.91344 63.0101 7.17656 61.9974C8.07071 59.0916 9.39238 56.2562 11.4036 54.0116C13.8317 51.2152 17.3078 49.5327 20.313 52.5938C28.8523 60.4617 23.1951 56.5556 29.7439 53.6481C31.7646 53.134 34.5919 56.9645 36.1707 58.1798C37.9147 59.4868 36.8951 60.3013 35.3432 59.118C34.5129 58.4233 33.6652 57.7494 32.8391 57.0497C31.8352 56.4662 30.6665 54.1862 29.4547 55.4524C27.9914 56.5975 26.9995 60.017 24.6965 58.7581C21.7851 57.0118 19.9558 53.2416 16.5794 52.4086C12.0323 53.2557 10.0189 58.2611 8.14487 61.9767C7.97993 62.3173 8.08787 62.4778 8.46084 62.4609C18.3512 61.8111 28.2342 61.1999 38.1492 61.1079C43.8976 61.059 41.4705 60.3193 41.1925 54.4888C40.7722 51.4631 40.5909 48.4169 40.2817 45.3823C40.4359 44.1323 39.4826 44.767 38.7132 44.7477C33.8588 44.8598 29.0068 44.8003 24.1563 45.1255C17.5553 45.7059 10.9186 45.583 4.32095 46.1879C3.97933 46.246 3.88006 46.3575 3.88927 46.7217C3.9805 49.8767 4.22908 53.0192 4.07959 56.1774ZM12.6651 63.315C12.3015 63.8327 11.555 63.3314 11.1076 63.5686C9.09277 64.0015 6.94352 63.9485 4.87465 64.2026C3.77392 64.3552 4.46222 66.1139 4.20939 66.9025C3.94004 70.7047 4.23333 74.5167 4.41733 78.3166C15.9052 78.3134 28.4144 78.0824 40.2314 78.6888C46.155 78.8055 43.7508 78.8596 43.4135 71.4758C43.0218 68.5877 42.821 65.6632 42.3493 62.7864C42.0702 61.3139 42.2429 61.463 40.8326 61.53C39.949 61.5719 39.0653 61.6136 38.1815 61.6495C31.2402 61.8687 24.1926 62.5317 17.3891 63.1071C17.0343 63.2778 16.5239 63.1406 16.1371 63.0979C15.0816 63.3269 13.6911 63.9314 12.6552 63.3108C12.76 63.3782 12.8628 63.4081 12.9852 63.3733C12.8825 63.331 12.7752 63.3192 12.6651 63.315ZM39.9514 43.6046C40.2606 42.8547 39.6646 39.6121 39.5684 38.5871C36.8948 38.6628 34.2063 38.8476 31.5324 38.9826C22.1912 39.4246 12.857 40.0196 3.50556 40.2083C2.44322 40.0451 0.894373 40.5348 0.114667 39.7267C-0.0682467 39.3384 0.481848 39.2656 0.740004 39.1968C10.7296 37.985 20.8359 37.8028 30.8806 37.2219C33.24 37.1055 35.5993 36.9863 37.9587 36.8687C39.4303 36.7944 41.5069 36.3601 41.9395 38.2725C44.0052 51.402 44.179 64.57 45.6076 77.7563C45.7245 78.7516 45.5189 80.2256 44.2154 80.1528C42.0943 79.9232 39.9657 79.8079 37.83 79.8281C33.1706 79.7303 28.5081 79.824 23.847 79.8238C17.1725 79.7512 10.4236 80.1685 3.81367 79.1343C2.62875 79.4529 3.22455 76.8279 2.94752 76.1316C2.81329 74.1023 2.60211 72.074 2.5751 70.0397C2.70174 63.4408 2.21017 56.8519 2.18705 50.2524C1.9727 47.6247 2.25452 44.8846 1.60263 42.3271C1.29778 40.684 3.44206 41.2353 3.42941 42.574C3.94555 47.8163 4.13198 44.3808 11.7457 44.5069C16.7973 44.4039 21.9031 43.6572 26.8852 43.8325C31.0439 43.2916 35.6231 43.8165 39.9514 43.6046Z" fill="#3D3D3D"/>
<path fill-rule="evenodd" clip-rule="evenodd" d="M7.55776 24.8572C9.07927 24.9919 11.0788 25.1386 12.5156 26.0122C13.4123 26.4366 14.5357 27.7709 12.7214 27.3952C10.4361 26.7937 8.07769 26.7404 5.7649 26.353C3.07455 25.1083 6.11515 24.7763 7.55776 24.8572Z" fill="#3D3D3D"/>
<path fill-rule="evenodd" clip-rule="evenodd" d="M57.7921 70.0813C59.2717 69.8162 64.6064 79.978 61.1789 76.8687C60.5875 76.0455 55.5773 70.238 57.7921 70.0813Z" fill="#3D3D3D"/>
<path fill-rule="evenodd" clip-rule="evenodd" d="M53.0763 73.8007C51.5099 74.27 50.49 70.9384 49.5873 69.894C49.2433 69.0563 48.036 68.0164 48.6163 67.1079C48.8887 66.9439 49.3598 66.6609 49.6024 67.0178C51.0971 69.0754 52.0472 71.4724 53.0763 73.8007Z" fill="#3D3D3D"/>
<path fill-rule="evenodd" clip-rule="evenodd" d="M11.7956 33.1533C10.7821 32.91 3.05779 32.9397 4.09571 31.3226C4.83165 30.4724 16.5381 33.0983 11.7956 33.1533Z" fill="#3D3D3D"/>
<path fill-rule="evenodd" clip-rule="evenodd" d="M18.157 31C19.0404 31.093 23.8178 31.5724 22.6672 33.0887C21.6621 33.5378 13.9777 31.5374 18.157 31Z" fill="#3D3D3D"/>
<path fill-rule="evenodd" clip-rule="evenodd" d="M34.5962 40.2995C35.2797 39.7736 35.8209 40.8047 36.446 40.228C36.6903 40.0029 37.005 39.8934 37.3369 39.9297C38.1359 40.2623 36.4289 40.9676 37.0888 41.4161C37.3568 41.7153 38.0046 41.9139 37.9153 42.3886C37.5358 42.8714 36.8997 42.046 36.502 41.877C36.0495 41.4824 35.7149 42.0994 35.3247 42.2661C35.0705 42.3977 34.3998 42.4507 34.5649 41.9906C35.2011 41.2202 35.6267 41.0168 34.5962 40.2995Z" fill="#3D3D3D"/>
<path fill-rule="evenodd" clip-rule="evenodd" d="M8.622 42.6415C8.51534 41.4695 10.2112 41.2929 10.7259 42.1551C11.4669 43.5174 8.58984 44.2054 8.622 42.6415Z" fill="#3D3D3D"/>
<path fill-rule="evenodd" clip-rule="evenodd" d="M6.73308 41.6359C7.98177 41.6731 6.95828 44.254 5.92551 43.3442C5.08558 42.7091 5.73378 41.438 6.73308 41.6359Z" fill="#3D3D3D"/>
<path fill-rule="evenodd" clip-rule="evenodd" d="M13.5397 42.3502C13.5217 42.9547 12.6031 43.3748 12.2106 42.8113C11.5921 41.6104 13.3282 40.8954 13.5397 42.3502Z" fill="#3D3D3D"/>
<path fill-rule="evenodd" clip-rule="evenodd" d="M34.2017 51.5928C36.8456 51.4923 34.4336 49.0485 33.2151 48.6336C31.3794 48.3661 32.4292 51.8541 34.2017 51.5928ZM34.4924 53.1367C32.2838 53.302 30.5265 51.691 30.8068 49.5626C30.291 45.9724 35.2751 46.9475 36.7438 48.9188C38.2634 50.8142 36.9089 53.3839 34.4924 53.1367Z" fill="#3D3D3D"/>
<path fill-rule="evenodd" clip-rule="evenodd" d="M36.6174 72.5733C36.6186 72.5902 36.6197 72.6071 36.6209 72.624C38.3888 72.5086 39.607 73.2671 38.6917 70.8454C37.3152 64.0768 36.8802 65.6804 30.7767 66.3215C29.8918 66.8123 30.4379 70.7439 30.2706 71.9017C30.3695 72.6343 30.4834 73.2108 31.3322 73.0815C33.0958 72.9479 34.8555 72.7359 36.6174 72.5733ZM28.3152 68.1141C28.2604 66.3539 28.5091 64.9989 30.5014 64.8949C32.4904 64.7943 34.7273 64.2432 36.6132 65.0379C36.9251 65.3466 37.271 65.3953 37.6896 65.3734C39.4136 64.8947 40.4483 72.2276 39.9543 73.3212C39.8042 73.7595 39.2957 73.668 38.9269 73.6769C37.081 73.6032 35.2671 73.9256 33.4424 74.1152C27.9829 75.3024 28.4845 72.4309 28.3152 68.1141Z" fill="#3D3D3D"/>
<path fill-rule="evenodd" clip-rule="evenodd" d="M10.5391 69.2924C10.8189 67.8337 11.6505 66.2724 13.0902 65.7007C14.5927 64.9361 14.9775 68.441 16.296 67.5843C19.7366 62.7996 18.9633 67.6324 20.5415 67.0111C21.275 66.3906 22.7103 64.4325 23.5757 65.7593C23.6334 66.4667 24.2469 67.3649 23.8893 68.0014C23.3794 68.1317 23.0221 67.5677 22.814 67.1813C21.972 66.6929 20.7512 69.7392 19.3954 68.2986C18.997 68.062 18.7014 66.9078 18.1555 67.3709C15.1046 72.1644 14.1287 66.1345 12.949 67.5775C12.3158 68.122 11.3519 70.8552 10.5391 69.2924Z" fill="#3D3D3D"/>
<path fill-rule="evenodd" clip-rule="evenodd" d="M20.3779 71.4371C21.1479 71.5748 22.928 71.0305 23.0766 72.0263C23.0515 72.2263 22.9081 72.3366 22.5633 72.3528C19.1612 72.3441 15.7697 72.7709 12.3678 72.6783C11.0568 71.5315 19.5452 71.543 20.3774 71.3838L20.3779 71.4371Z" fill="#3D3D3D"/>
<path fill-rule="evenodd" clip-rule="evenodd" d="M17.9108 74.2305C24.016 74.3563 14.9355 75.6564 13.4998 75.0869C13.0104 74.2994 17.291 74.2544 17.9108 74.2363C17.9108 74.2343 17.9108 74.2324 17.9108 74.2305Z" fill="#3D3D3D"/>
<path fill-rule="evenodd" clip-rule="evenodd" d="M36.4599 70.4347C36.5644 72.4321 31.7404 70.7858 33.3169 69.95C34.2946 70.4774 35.2103 70.554 36.0917 69.7837C36.4954 69.6766 36.4119 70.1624 36.4599 70.4347Z" fill="#3D3D3D"/>
<path fill-rule="evenodd" clip-rule="evenodd" d="M34.77 67.8005C34.8498 66.006 37.3798 68.0451 36.3838 68.58C35.6085 68.9316 34.747 68.8548 34.77 67.8005Z" fill="#3D3D3D"/>
<path fill-rule="evenodd" clip-rule="evenodd" d="M31.9291 68.0307C31.8152 67.2079 33.0864 67.3582 33.2217 67.9619C33.3516 68.86 31.829 68.9821 31.9291 68.0307Z" fill="#3D3D3D"/>
<path fill-rule="evenodd" clip-rule="evenodd" d="M71.9495 52.2176C73.0872 51.9487 78.2328 49.6169 76.0884 52.3613C75.7668 52.5472 75.8276 52.6912 76.0723 52.8971C76.2027 53.0069 76.2023 53.1848 76.1092 53.3573C75.6628 54.3824 75.9608 55.5345 75.4927 56.5909C75.4134 56.9353 74.9298 57.3901 75.5213 57.525C75.8241 57.5354 75.9391 57.8439 76.01 58.084C75.9551 58.5224 75.8271 58.7187 76.4147 58.7619C77.0878 58.9226 76.7113 59.4669 76.5742 59.8866C76.5477 61.1081 71.843 62.0276 70.6859 62.7523C69.4264 63.3132 68.1435 63.4728 66.7861 63.4788C65.9154 63.6321 64.8572 63.9808 64.2156 63.131C63.4171 62.4663 62.2974 63.4261 62.019 61.7393C61.9794 61.1947 61.5125 61.4939 61.1659 61.5335C60.4366 61.5742 60.8625 60.4263 60.7677 59.9741C60.9632 55.6198 61.1206 51.2567 60.5809 46.9179C60.1084 45.1093 61.7313 42.9488 59.758 41.7505C59.4278 41.1081 61.8136 40.3138 61.6129 41.3252C61.4679 42.6453 65.4764 40.0994 65.9707 41.2169C66.0696 41.511 66.2798 41.4824 66.5127 41.4374C68.5747 41.0574 70.6602 41.4099 72.7374 40.9887C75.3311 40.9625 73.6344 41.7567 73.8237 43.2189C73.4882 44.6775 76.6473 42.8669 73.9978 46.943C74.4778 47.0219 75.2831 46.4511 75.4154 47.2091C77.4108 48.4092 73.4531 49.2404 72.7432 49.9383C73.8916 49.7993 77.6167 48.4042 74.9174 50.7555C73.8908 51.3013 72.9485 51.5583 71.9495 52.2176Z" fill="#59E9D3"/>
<path fill-rule="evenodd" clip-rule="evenodd" d="M54.6262 33.7329C54.7923 34.0302 55.4037 33.6324 55.5493 33.3565C55.2269 33.2561 54.9295 33.6276 54.6262 33.7329ZM56.9736 26.2183C57.3723 29.6725 57.5897 33.2567 57.8508 36.7466C57.9295 37.2358 57.9099 37.7639 58.4876 37.9782C59.762 38.4571 58.2633 39.0546 58.2106 39.7798C58.1274 40.5431 57.7732 41.1799 56.8986 41.1337C55.2819 41.2098 53.6688 41.3704 52.0567 41.5232C51.0776 41.6519 50.0661 42.2262 49.2196 41.3752C46.6564 39.1136 48.4458 35.8473 48.3611 33.0056C48.6894 30.1727 48.2527 26.9439 49.8661 24.468C50.8593 23.2705 54.609 22.8584 56.1882 22.791C56.881 22.8099 56.7015 23.474 56.6714 23.953C57.0074 24.6599 57.0429 25.4028 56.9736 26.2183Z" fill="#59E9D3"/>
<path fill-rule="evenodd" clip-rule="evenodd" d="M32.4194 3.785C32.2034 0.949692 33.669 0.0655385 36.3353 0C37.5758 0.106077 39.407 -0.208923 39.9958 1.18846C40.725 3.85023 42.08 6.41946 42.4107 9.14831C42.0676 12.755 37.4782 12.798 36.3696 9.49615C35.4121 7.35092 32.3828 6.31823 32.4194 3.785Z" fill="#E94668"/>
<path fill-rule="evenodd" clip-rule="evenodd" d="M17.367 28.4835C18.5581 28.5742 19.7506 28.8711 20.9441 28.6262C21.2513 28.5553 21.5102 28.6162 21.7957 28.8185C22.6126 29.6329 23.9418 28.8447 24.8041 29.4377C25.2835 29.8969 26.1748 30.0932 25.5129 30.8856C24.2044 32.5065 23.1988 34.3727 21.4972 35.645C19.2036 37.4518 16.094 35.7995 14.4091 33.9114C12.5099 31.8645 14.6863 28.1213 17.367 28.4835Z" fill="#E94668"/>
<path fill-rule="evenodd" clip-rule="evenodd" d="M78.8152 10.0658C79.9493 9.86661 82.2435 10.4642 80.776 11.7775C78.3315 14.2553 75.4669 16.3567 73.4266 19.1994C73.0105 19.9168 71.5753 20.0021 71.5352 19.0241C71.7076 18.063 73.5067 17.2389 72.1978 16.4934C71.5863 15.8351 71.8207 14.6594 72.0307 13.883C72.1383 13.4335 73.7908 11.9323 73.0287 11.8541C68.8774 10.1471 77.9728 10.2471 78.8152 10.0658Z" fill="#59E9D3"/>
<path fill-rule="evenodd" clip-rule="evenodd" d="M57.9338 46.1631V56.1481C56.2296 53.1515 57.3293 49.3933 57.9338 46.1631Z" fill="#59E9D3"/>
<path fill-rule="evenodd" clip-rule="evenodd" d="M58.3444 38.8295H58.346C58.3745 39.3808 58.1088 40.469 59.0189 40.2063C60.7099 39.9008 62.4102 40.0919 64.1065 40.1222C66.6656 40.2138 69.203 40.6103 71.7676 40.6251C72.247 40.5376 73.2989 41.1015 73.3955 40.4082C73.2543 39.7399 73.7469 38.487 73.0315 38.1579C71.189 37.8285 69.2983 37.947 67.4349 37.8313C64.6444 37.7327 61.8541 37.6307 59.064 37.5233C58.1443 37.2989 58.3493 38.2304 58.3444 38.8295ZM71.1393 13.6024L71.19 13.6014C71.1406 10.8307 71.604 7.9817 71.0133 5.25231C69.0057 5.63485 68.2219 14.5603 68.3489 16.5292C68.4804 18.0201 66.8661 18.215 66.5849 16.7906C65.9893 13.799 65.8818 10.7472 65.3772 7.74208C64.374 2.31939 63.2111 8.12946 63.0792 10.1959C62.4053 11.7394 63.848 19.0196 61.9219 18.7312C60.4542 18.1825 60.6959 12.8802 60.128 11.2175C59.7382 9.93893 59.1828 2.024 57.987 7.04723C56.4573 15.9027 57.9458 24.8935 58.1583 33.7963C58.1584 34.3829 58.1585 34.9704 58.1878 35.5559C58.2397 36.5919 58.2493 36.541 59.2079 36.4684C61.5766 36.2823 63.9515 36.2555 66.3231 36.3872C74.8765 36.2585 72.9776 38.8089 73.2618 31.6579C73.2077 27.712 80.3158 29.3624 78.0535 27.8772C76.1574 26.7172 74.0571 25.8151 72.3706 24.3515C70.4976 21.2312 71.5188 17.1092 71.1393 13.6024ZM61.6228 10.8382C62.4258 8.78677 61.9684 6.34916 63.6733 4.71646C64.6617 4.17877 64.933 3.95854 65.7318 4.98562C66.8898 6.48277 66.7606 8.52685 67.3482 10.1917C68.3751 8.12585 68.4078 5.25323 70.5708 3.76946C74.1402 1.39623 72.7382 17.8635 73.0996 19.8002C73.1319 22.5008 72.9111 23.1345 75.3485 24.5353C80.0165 26.5207 82.7262 30.0891 75.7295 30.9453C74.832 31.2002 74.7249 31.3817 74.8117 32.3138C75.4877 38.7354 75.6392 45.1952 75.6408 51.647C75.7365 54.4393 75.8086 57.23 75.9272 60.0213C76.0341 60.6109 75.1688 61.2803 74.8562 60.5779C74.263 55.5888 73.7426 50.4511 73.697 45.4153C73.4752 44.6128 74.0136 41.7535 72.9261 41.8122C71.2306 41.1234 72.5014 44.7302 72.3622 45.601C72.5025 46.8573 72.4585 48.107 72.3203 49.3603C71.9818 52.1361 72.0038 54.9352 71.93 57.7262C71.7303 58.6168 72.4615 61.1138 71.2325 61.1689C70.1689 60.6443 70.9662 55.0039 70.7004 53.5314C70.6357 51.0129 71.2374 48.5204 71.0193 46.007C70.9723 44.6676 70.8449 43.3239 71.2039 42.0132C71.229 41.8774 71.164 41.7654 71.0542 41.7638C70.3703 41.8766 68.9752 41.4124 68.6675 42.1495C68.9453 45.0405 69.2389 47.939 68.9778 50.843C68.8992 52.9902 68.8452 55.1412 68.7992 57.29C68.5495 58.2576 69.5317 62.2901 68.1121 61.9623C67.6473 61.7473 67.7456 60.9792 67.5816 60.5456C67.1564 57.9828 67.1837 55.3646 67.1973 52.7756C67.3774 49.2644 66.8818 45.7302 67.3654 42.2391C67.4358 41.3778 66.0022 41.8782 65.4559 41.744C65.1655 41.7478 65.1024 41.8552 65.1052 42.1872C65.1259 44.6718 65.1765 47.1565 65.1567 49.6407C65.1281 53.1332 64.8918 56.6233 65.0646 60.1153C64.972 60.69 65.3127 61.5752 64.6828 61.8802C64.2606 62.0565 64.2291 61.5145 64.2135 61.2263C63.9302 58.3616 63.682 55.503 63.6848 52.6188C63.6213 49.1028 63.2532 45.5725 63.6518 42.0651C63.6858 41.7949 63.605 41.6829 63.3541 41.6764C62.8001 41.8083 61.5409 41.2988 61.3915 41.9833C61.6295 43.8414 61.7788 45.7074 61.6758 47.5811C61.4275 48.4456 62.682 62.0415 61.33 59.8102C61.0983 59.3648 60.9315 58.8851 60.9491 58.3767C60.8364 54.4127 60.0083 50.506 60.1979 46.5282C60.0012 45.6877 60.6158 41.541 59.7828 41.565C59.201 41.5258 58.2158 41.2042 58.3892 42.1459C58.4803 47.8666 58.1917 53.6107 58.5952 59.3174C58.4913 66.3645 57.2554 56.3045 57.4724 54.6456C57.6635 40.8287 56.4821 27.0569 56.375 13.2517C56.7631 10.8501 56.3319 4.99493 59.0176 4.22339C60.5652 4.21385 61.0284 9.507 61.6228 10.8382Z" fill="#3D3D3D"/>
<path fill-rule="evenodd" clip-rule="evenodd" d="M45.4145 22.1313C45.493 22.8309 44.6383 23.5586 44.1224 22.8503C43.645 22.197 43.8195 21.3316 43.4724 20.625C43.1118 19.8424 40.6053 20.8478 39.7168 20.6025C38.2735 19.7776 42.1779 19.314 42.6701 19.133C43.4843 18.9883 41.6088 16.1457 43.6313 17.1626C44.1945 17.6697 44.119 18.9206 45.0768 18.7518C45.7975 18.8329 47.2087 18.2518 47.5335 19.0862C47.7473 20.122 46.1555 19.8486 45.5069 20.0573C44.7215 20.2322 45.5148 21.5308 45.4145 22.1313Z" fill="#3D3D3D"/>
<path fill-rule="evenodd" clip-rule="evenodd" d="M48.617 3.99051C48.6604 4.35513 48.0733 5.50766 48.8303 5.57774C49.458 5.53936 51.9592 6.94512 50.6232 7.33928C47.6857 6.26959 48.2609 6.1732 47.4197 9.03936C47.2917 9.40659 46.9735 9.5192 46.622 9.53528C45.3941 9.37712 46.216 7.71136 46.3034 6.94236C46.6304 6.13105 46.069 6.03089 45.4135 5.90066C45.105 5.87882 44.3804 5.34189 44.8934 5.12951C45.962 4.94859 46.7593 5.72459 47.23 4.40066C47.5879 3.64759 48.8265 2.07666 48.617 3.99051Z" fill="#3D3D3D"/>
<path fill-rule="evenodd" clip-rule="evenodd" d="M28.8773 9.31094C30.2691 9.69478 30.1783 8.68547 30.6776 7.72601C31.9134 5.76232 31.7187 8.40363 31.5471 9.29901C31.4416 10.3312 33.0892 9.95793 33.4574 10.7382C33.5396 11.6847 32.1883 11.0246 31.6832 10.9606C31.076 10.6237 30.2726 14.5809 29.4523 13.2054C28.8556 12.4025 29.4165 11.5884 29.6489 10.7562C29.6994 9.9184 28.1636 10.2865 27.6773 9.75932C27.1868 9.07978 28.5223 9.33063 28.8776 9.2914C28.8775 9.29794 28.8774 9.3044 28.8773 9.31094Z" fill="#3D3D3D"/>
<path fill-rule="evenodd" clip-rule="evenodd" d="M22.5418 23.4684C21.3198 23.0159 21.5038 20.7593 19.8788 21.5767C19.5305 21.6384 17.914 22.2197 18.1822 21.4994C20.0996 20.1349 20.7011 21.1448 19.6504 18.7007C19.6164 18.5367 19.5931 18.3476 19.7671 18.2493C20.9637 17.7339 21.1373 20.3978 22.3612 19.7173C24.5991 18.5061 25.3401 20.5053 22.7174 20.845C21.702 21.3956 24.7088 23.4736 22.5418 23.4684Z" fill="#3D3D3D"/>
<path fill-rule="evenodd" clip-rule="evenodd" d="M18.9447 3.23828C19.6221 3.40005 24.1622 4.20374 23.9552 4.85113C23.6197 5.82682 22.8825 5.5689 22.0924 5.30974C21.5323 5.14328 16.3215 3.5849 18.9447 3.23828Z" fill="#3D3D3D"/>
</svg>
