<svg width="115" height="36" viewBox="0 0 115 36" fill="none" xmlns="http://www.w3.org/2000/svg">
<path d="M12.3156 0.503352C12.4028 0.48511 12.4119 0.544397 12.418 0.606725C13.8836 5.18022 16.0055 8.17424 18.761 11.2792C21.3975 14.2497 24.4463 17.0628 24.6956 22.2596C24.8912 26.3436 23.108 29.6454 21.2172 31.7C19.1074 33.9939 15.682 35.5727 12.111 35.4974C8.44008 35.4191 5.43526 33.7956 3.31181 31.3929C1.19669 29.0001 -0.256839 25.9711 0.0379593 21.8484C0.470683 15.7889 5.01012 12.8298 7.91641 9.02175C9.8057 6.54384 11.1243 3.98079 12.3156 0.503352ZM4.74412 23.0813C4.78049 25.8472 6.27191 28.3723 8.32564 29.6492C11.2228 31.4499 15.253 30.9885 17.6364 28.6216C18.8944 27.3735 19.7485 25.6314 19.9895 23.0813C16.8081 23.0813 16.0821 23.0341 12.3854 23.0341C12.3854 20.5022 12.4187 17.8123 12.4187 15.2819C7.99826 15.2705 4.69031 18.925 4.74412 23.0813Z" fill="#3D3D3D"/>
<path d="M47.7176 17.9493C46.4793 18.0762 45.1819 18.1431 43.9315 18.2579C43.6837 17.8497 43.4139 17.5092 43.2153 17.231C42.8235 16.6837 42.0384 15.9624 41.2715 15.6918C37.9901 14.5357 34.6192 16.7529 34.2123 20.412C33.8417 23.7344 35.199 27.1738 37.9977 27.9028C41.3018 28.7647 43.6018 26.6532 44.146 24.1198C42.9122 24.1198 41.2412 24.1707 39.8392 24.1046C39.8392 23.0442 39.8392 21.9854 39.8392 20.9228C42.6015 20.9228 45.3646 20.9228 48.1261 20.9228C48.1148 25.0144 47.2986 27.5045 45.3638 29.3378C42.0665 32.4633 36.0386 32.119 32.9838 29.1318C31.0331 27.224 30.0358 24.2117 30.3231 20.4074C30.6565 16.0065 33.5469 12.4302 38.5084 11.9924C43.6314 11.544 46.6453 14.0652 47.7176 17.9493Z" fill="#3D3D3D"/>
<path d="M58.1515 12.1003C63.7655 11.8153 67.7616 15.9464 67.7707 21.6441C67.7828 27.7765 63.4396 31.4949 58.4591 31.4949C53.5203 31.4957 50.0123 27.9453 49.5576 23.2859C48.9369 16.8844 52.4169 12.3899 58.1515 12.1003ZM53.856 24.7217C54.551 26.5429 56.2637 27.9681 58.4599 28.0061C65.7245 28.1346 65.6298 14.6041 57.9484 15.5892C54.3812 16.046 52.2328 20.4743 53.856 24.7217Z" fill="#3D3D3D"/>
<path d="M105.321 12.1C110.532 11.815 114.459 15.3616 114.938 20.3098C115.54 26.5016 111.717 31.4946 105.731 31.4946C100.186 31.4954 96.7397 27.2571 96.7276 21.9509C96.7154 16.4979 99.893 12.3949 105.321 12.1ZM103.174 16.2045C99.3952 18.6034 99.6452 28.0453 105.834 28.0058C110.46 27.9754 112.586 21.6544 110.131 17.8463C109.208 16.4166 107.398 15.2552 105.118 15.5889C104.089 15.7386 103.724 15.8534 103.174 16.2045Z" fill="#3D3D3D"/>
<path d="M81.3799 12.3047C81.3799 13.4684 81.3799 14.6313 81.3799 15.7943C79.7771 15.7943 78.1743 15.7943 76.5707 15.7943C76.5707 20.8915 76.5707 25.9879 76.5707 31.0851C75.3074 31.0851 74.0471 31.0851 72.7846 31.0851C72.7846 26.0214 72.7846 20.8801 72.7846 15.8179C71.253 15.8179 69.6532 15.7943 68.0784 15.7943C68.0784 14.5356 68.0557 13.5018 68.0557 12.3047C72.4541 12.3047 76.9792 12.3047 81.3799 12.3047Z" fill="#3D3D3D"/>
<path d="M95.293 12.3045C95.293 13.434 95.34 14.6532 95.34 15.7819C92.6845 15.7819 90.1519 15.7941 87.4153 15.7941C87.4153 17.128 87.4153 18.5813 87.4153 19.9138C89.7616 19.9138 92.176 19.8994 94.7822 19.8994C94.7822 21.0266 94.7822 22.1561 94.7822 23.2848C92.3276 23.2848 89.8722 23.2848 87.4153 23.2848C87.4153 24.8673 87.3812 26.4514 87.3812 27.7185C89.9359 27.7185 91.9995 27.6972 95.1907 27.6972C95.1907 28.8259 95.1907 29.9554 95.1907 31.0842C91.3038 31.0842 87.4153 31.0842 83.5284 31.0842C83.5951 24.859 83.3905 18.3594 83.6292 12.3037C87.5169 12.3045 91.4038 12.3045 95.293 12.3045Z" fill="#3D3D3D"/>
</svg>
