<svg width="295" height="282" viewBox="0 0 295 282" fill="none" xmlns="http://www.w3.org/2000/svg">
<g opacity="0.08">
<path fill-rule="evenodd" clip-rule="evenodd" d="M120.109 31.9265C110.135 23.6406 96.3826 32.1682 106.105 43.3659C108.6 46.0524 112.612 44.67 115.761 44.2083C120.75 43.0594 121.739 36.1097 120.109 31.9265Z" fill="#E6E5F7"/>
<path fill-rule="evenodd" clip-rule="evenodd" d="M121.868 64.0244C122.981 61.0275 121.692 56.7639 118.479 55.8291C114.308 55.9183 107.537 53.5095 105.885 58.7691C100.634 72.6453 118.236 78.4349 121.868 64.0244Z" fill="#E6E5F7"/>
<path fill-rule="evenodd" clip-rule="evenodd" d="M123.971 49.4763C120.871 62.715 142.56 62.64 140.147 49.0991C140.316 39.5291 124.981 41.7674 123.971 49.4763Z" fill="#E6E5F7"/>
<path fill-rule="evenodd" clip-rule="evenodd" d="M125.968 78.5543C129.268 80.2997 132.224 82.912 136.09 80.8513C138.035 80.2721 140.275 80.0149 140.72 77.6157C144.005 66.275 122.458 64.3122 122.949 75.3832C123.187 77.8351 123.512 78.2651 125.968 78.5543Z" fill="#E6E5F7"/>
<path fill-rule="evenodd" clip-rule="evenodd" d="M135.981 131.357C123.652 128.758 126.616 114.431 138.502 115.117C152.867 116.022 150.218 135.565 135.981 131.357ZM244.615 186.98C244.304 181.64 241.984 176.274 244.973 171.449C245.334 167.419 249.696 166.141 250.528 162.246C251.827 155.7 254.828 149.164 254.119 142.414C253.975 141.345 254.216 140.935 255.169 140.372C257.601 138.935 257.648 135.568 255.247 134.134C234.592 125.283 213.375 117.333 191.99 110.374C188.729 108.679 190.121 114.664 187.252 113.339C173.594 108.713 159.542 105.37 145.872 100.817C140.902 100.463 119.547 90.9796 118.686 95.5297C112.101 106.425 109.218 118.956 105.54 131.017C99.3226 152.454 100.089 165.618 126.555 156.373C132.219 153.984 158.86 139.192 161.409 147.693C161.852 158.187 168.458 165.296 178.486 158.561C183.888 154.643 189.543 149.439 196.395 148.892C212.966 149.208 223.686 166.995 226.158 181.595C227.908 188.667 225.462 200.708 234.748 202.725C242.242 205.587 241.436 191.79 244.615 186.98Z" fill="#E6E5F7"/>
<path fill-rule="evenodd" clip-rule="evenodd" d="M244.71 187.135C238.524 204.797 233.617 222.802 227.055 240.342C224.303 245.237 222.322 259.267 217.858 261.118C175.269 251.638 133.233 238.827 91.7187 225.282C86.2673 223.747 78.4741 218.338 74.984 225.503C72.8561 230.232 80.2535 231.53 82.5843 234.633C84.8302 236.671 87.9751 237.114 90.8908 237.422C115.208 241.595 138.561 250.287 162.347 256.775C179.154 261.328 194.69 269.632 212.121 271.862C215.584 272.677 212.292 276.513 217.863 275.708C221.796 276.219 221.763 276.206 223.301 272.836C227.562 264.52 230.876 255.783 234.042 247.013C243.494 219.332 253.788 191.863 261.364 163.566C265.468 149.954 269.61 136.431 271.83 122.358C271.924 120.474 273.218 117.951 271.473 116.553C260.947 115.874 250.351 176.395 244.71 187.135Z" fill="#E6E5F7"/>
<path fill-rule="evenodd" clip-rule="evenodd" d="M115.675 180.572C109.692 178.195 99.7262 179.711 101.941 187.864C104.169 192.369 93.4512 193.944 99.0013 200.025C104.402 205.144 112.225 206.749 118.949 209.581C124.331 210.464 126.286 219.008 132.056 217.306C136.284 211.908 135.71 204.167 137.629 197.764C139.475 192.125 137.149 187.601 131.12 186.404C126.161 184.485 120.62 182.191 115.675 180.572Z" fill="#E6E5F7"/>
<path fill-rule="evenodd" clip-rule="evenodd" d="M135.906 131.247C150.286 135.489 152.863 116.115 138.37 115.149C126.377 114.415 123.46 128.611 135.906 131.247Z" fill="#E6E5F7"/>
<path fill-rule="evenodd" clip-rule="evenodd" d="M247.564 177.115C245.516 180.82 241.845 204.397 238.074 202.532C235.41 200.458 229.927 199.961 229.951 195.881C229.493 184.033 227.342 172.015 221.981 161.521C215.596 148.526 204.115 138.66 189.633 147.132C149.32 168.079 174.709 159.12 152.813 141.52C145.67 137.532 131.087 149.081 123.875 152.053C115.944 155.202 118.988 159.305 126.066 156.426C129.915 154.654 133.809 152.978 137.646 151.183C142.041 150.006 148.772 142.609 152.089 148.607C156.482 154.405 156.793 168.287 166.795 165.887C179.594 162.27 190.333 149.934 203.975 150.228C220.36 158.036 222.944 178.927 226.301 194.82C226.583 196.27 226.012 196.764 224.615 196.322C187.772 183.828 150.919 171.486 113.42 161.067C91.6751 155.043 101.623 154.724 108.559 133.055C113.205 122.091 116.965 110.806 121.199 99.6949C121.876 94.8322 124.849 98.1902 127.786 98.8993C146.078 104.253 164.533 108.958 182.595 115.11C207.037 124.001 232.323 130.281 256.727 139.26C257.963 139.826 258.227 140.347 257.825 141.709C254.296 153.494 250.184 165.073 247.564 177.115ZM207.813 195.266C208.669 197.585 212.005 196.456 213.462 197.803C220.664 201.48 228.867 203.464 236.454 206.522C240.473 208.215 236.09 214.137 236.253 217.363C233.438 231.952 228.48 246.006 223.949 260.125C180.398 248.443 133.204 234.865 87.7899 225.143C65.2134 219.564 74.2741 222.211 83.0018 194.754C87.4005 184.278 91.1121 173.472 95.8027 163.12C98.3461 157.859 97.5411 158.246 102.82 159.93C106.128 160.986 109.436 162.041 112.751 163.074C138.847 170.951 164.898 180.606 190.112 189.684C191.285 190.687 193.359 190.689 194.868 190.922C198.639 192.856 203.301 196.545 207.855 195.26C207.389 195.408 206.97 195.416 206.54 195.16C206.972 195.106 207.391 195.17 207.813 195.266ZM124.244 93.3376C123.829 90.2003 129.36 78.5974 130.759 74.8361C140.818 77.8373 150.825 81.2641 160.827 84.489C195.797 95.6428 230.586 107.366 265.85 117.576C270.043 118.041 275.421 121.458 279.192 119.208C280.278 117.931 278.265 117.099 277.356 116.577C240.704 101.867 202.572 90.9135 165.074 78.522C156.246 75.6871 147.422 72.8414 138.595 70.0018C133.09 68.227 125.656 64.4823 122.086 71.243C101.009 118.576 87.0664 167.976 68.3474 216.171C66.8999 219.799 66.1926 225.558 71.2082 226.608C79.4816 227.898 87.6682 229.626 95.745 231.872C113.509 236.237 131.092 241.326 148.764 246.061C174.143 252.568 199.309 260.996 225.413 263.817C229.584 266.22 229.974 255.732 231.726 253.392C234.282 245.888 237.129 238.466 239.284 230.835C245.461 205.861 253.972 181.554 260.717 156.731C264.18 147.055 265.876 136.453 270.928 127.486C273.741 121.61 265.055 121.507 263.753 126.56C256.507 145.773 259.266 132.649 230.273 125.389C211.224 119.869 192.619 111.871 173.553 107.47C158.332 101.208 140.441 98.5324 124.244 93.3376Z" fill="#FAF9FF"/>
<path fill-rule="evenodd" clip-rule="evenodd" d="M265.965 55.6624C260.061 54.6241 252.332 53.1452 246.003 54.9743C242.175 55.6614 236.57 59.5435 243.828 59.9722C253.099 60.0291 262.094 62.2246 271.254 63.1157C282.709 61.1625 271.516 56.8235 265.965 55.6624Z" fill="#FAF9FF"/>
<path fill-rule="evenodd" clip-rule="evenodd" d="M29.8879 174.897C24.5454 172.396 -5.9317 205.235 10.2 197.011C13.2727 194.513 38.1266 177.738 29.8879 174.897Z" fill="#FAF9FF"/>
<path fill-rule="evenodd" clip-rule="evenodd" d="M44.0139 193.69C49.4795 197.048 56.707 185.541 61.1834 182.526C63.3326 179.722 68.9589 177.033 67.6753 173.023C66.8079 172.129 65.3074 170.585 64.0276 171.682C56.2849 177.91 50.2646 185.97 44.0139 193.69Z" fill="#FAF9FF"/>
<path fill-rule="evenodd" clip-rule="evenodd" d="M241.532 82.5928C245.62 82.7063 274.876 90.6654 272.572 83.5225C270.64 79.574 223.607 77.5679 241.532 82.5928Z" fill="#FAF9FF"/>
<path fill-rule="evenodd" clip-rule="evenodd" d="M219.582 68.0201C216.139 67.4729 197.542 64.4246 200.375 71.3021C203.733 74.0138 234.885 74.2893 219.582 68.0201Z" fill="#FAF9FF"/>
<path fill-rule="evenodd" clip-rule="evenodd" d="M147.88 86.3342C145.819 83.6601 142.727 86.9921 140.939 84.1861C140.24 83.0903 139.157 82.3581 137.862 82.1578C134.497 82.5982 140.258 86.988 137.303 88.0059C135.985 88.8603 133.329 88.9498 133.189 90.8277C134.14 93.0311 137.385 90.5697 139.063 90.3374C141.177 89.3115 141.823 91.9743 143.134 92.9982C143.965 93.7522 146.455 94.6328 146.293 92.7328C144.658 89.1863 143.25 87.9879 147.88 86.3342Z" fill="#FAF9FF"/>
<path fill-rule="evenodd" clip-rule="evenodd" d="M244 121.54C245.587 117.236 239.335 114.848 236.514 117.571C232.33 121.947 242.544 127.46 244 121.54Z" fill="#FAF9FF"/>
<path fill-rule="evenodd" clip-rule="evenodd" d="M252.171 119.672C247.4 118.543 248.676 129.299 253.51 126.923C257.335 125.386 256.16 119.942 252.171 119.672Z" fill="#FAF9FF"/>
<path fill-rule="evenodd" clip-rule="evenodd" d="M225.647 115.447C225.105 117.742 228.164 120.257 230.22 118.534C233.777 114.641 227.916 110.185 225.647 115.447Z" fill="#FAF9FF"/>
<path fill-rule="evenodd" clip-rule="evenodd" d="M137.981 129.255C128.059 126.19 139.669 119.44 144.707 119.116C151.937 119.973 144.438 132.039 137.981 129.255ZM135.322 134.772C143.529 137.638 151.816 133.358 152.901 125.06C158.478 112.067 138.598 110.675 131.041 116.605C123.368 122.197 125.91 133.248 135.322 134.772Z" fill="#462949"/>
<path fill-rule="evenodd" clip-rule="evenodd" d="M107.66 205.79C107.639 205.852 107.617 205.914 107.596 205.977C101.009 203.746 95.6254 205.365 101.539 197.177C113.586 173.092 113.617 179.572 136.111 188.186C138.971 190.932 132.934 205.18 132.4 209.709C131.286 212.367 130.273 214.422 127.186 213.072C120.634 210.778 114.176 208.192 107.66 205.79ZM143.635 197.435C145.619 190.864 146.043 185.51 138.594 183.094C131.155 180.695 123.23 176.348 115.278 177.424C113.784 178.269 112.423 178.101 110.858 177.593C104.805 174.04 93.4843 200.597 94.2541 205.215C94.3808 207.018 96.4011 207.191 97.7904 207.599C104.863 209.196 111.415 212.253 118.142 214.82C137.644 224.836 138.639 213.516 143.635 197.435Z" fill="#FAF9FF"/>
<path fill-rule="evenodd" clip-rule="evenodd" d="M209.841 219.93C210.252 214.153 208.674 207.43 203.792 203.815C198.867 199.411 193.873 212.215 189.738 207.65C181.52 186.141 179.577 205.122 174.22 201.179C172.065 198.098 168.598 189.268 163.979 193.384C163.047 195.989 159.814 198.747 160.528 201.507C162.33 202.515 164.253 200.755 165.432 199.512C169.117 198.528 170.672 211.237 177.266 207.191C179.015 206.705 181.3 202.66 182.903 204.958C189.634 226.105 199.417 204.394 202.434 211.025C204.286 213.718 205.183 224.988 209.841 219.93Z" fill="#FAF9FF"/>
<path fill-rule="evenodd" clip-rule="evenodd" d="M170.371 218.011C167.313 217.747 161.113 213.89 159.545 217.488C159.438 218.266 159.871 218.827 161.162 219.239C174.069 222.662 186.497 227.714 199.488 230.822C205.615 227.836 173.421 219.256 170.427 217.811L170.371 218.011Z" fill="#FAF9FF"/>
<path fill-rule="evenodd" clip-rule="evenodd" d="M176.906 231.032C153.632 225.304 186.748 239.423 192.766 238.737C195.416 236.27 179.232 231.752 176.9 231.054C176.902 231.046 176.904 231.039 176.906 231.032Z" fill="#FAF9FF"/>
<path fill-rule="evenodd" clip-rule="evenodd" d="M110.411 197.899C108 205.313 127.95 204.016 122.816 199.267C118.577 200.26 115.028 199.618 112.463 195.822C111.041 195.009 110.867 196.923 110.411 197.899Z" fill="#FAF9FF"/>
<path fill-rule="evenodd" clip-rule="evenodd" d="M119.476 189.699C120.984 182.862 109.335 187.968 112.571 190.994C115.156 193.106 118.5 193.692 119.476 189.699Z" fill="#FAF9FF"/>
<path fill-rule="evenodd" clip-rule="evenodd" d="M130.009 193.45C131.271 190.468 126.3 189.742 125.178 191.877C123.779 195.127 129.429 197.133 130.009 193.45Z" fill="#FAF9FF"/>
</g>
</svg>

