<svg width="295" height="184" viewBox="0 0 295 184" fill="none" xmlns="http://www.w3.org/2000/svg">
<g opacity="0.08">
<path fill-rule="evenodd" clip-rule="evenodd" d="M120.109 21.9265C110.135 13.6407 96.3821 22.1682 106.104 33.366C108.6 36.0525 112.612 34.67 115.761 34.2084C120.749 33.0595 121.739 26.1097 120.109 21.9265Z" fill="#E6E5F7"/>
<path fill-rule="evenodd" clip-rule="evenodd" d="M121.867 54.0245C122.98 51.0276 121.691 46.764 118.479 45.8291C114.307 45.9183 107.537 43.5096 105.885 48.7692C100.633 62.6453 118.236 68.4349 121.867 54.0245Z" fill="#E6E5F7"/>
<path fill-rule="evenodd" clip-rule="evenodd" d="M123.971 39.4764C120.871 52.715 142.56 52.6401 140.148 39.0992C140.316 29.5292 124.981 31.7675 123.971 39.4764Z" fill="#E6E5F7"/>
<path fill-rule="evenodd" clip-rule="evenodd" d="M125.968 68.5545C129.269 70.2999 132.224 72.9123 136.09 70.8515C138.036 70.2723 140.275 70.0152 140.72 67.6159C144.005 56.2752 122.458 54.3125 122.95 65.3835C123.187 67.8353 123.512 68.2653 125.968 68.5545Z" fill="#E6E5F7"/>
<path fill-rule="evenodd" clip-rule="evenodd" d="M135.981 121.357C123.652 118.758 126.616 104.431 138.502 105.117C152.867 106.022 150.218 125.565 135.981 121.357ZM244.615 176.98C244.304 171.64 241.984 166.274 244.974 161.449C245.334 157.419 249.696 156.141 250.528 152.246C251.827 145.7 254.828 139.164 254.119 132.414C253.975 131.345 254.217 130.935 255.17 130.372C257.601 128.935 257.648 125.568 255.247 124.134C234.592 115.283 213.375 107.333 191.99 100.374C188.729 98.6789 190.121 104.664 187.252 103.339C173.594 98.7129 159.542 95.3702 145.872 90.817C140.903 90.4635 119.547 80.9797 118.686 85.5298C112.101 96.4247 109.218 108.956 105.54 121.017C99.3227 142.454 100.089 155.618 126.555 146.373C132.219 143.984 158.86 129.192 161.409 137.693C161.852 148.187 168.458 155.296 178.486 148.561C183.888 144.643 189.543 139.439 196.395 138.892C212.966 139.208 223.687 156.995 226.158 171.595C227.908 178.667 225.462 190.708 234.748 192.725C242.243 195.587 241.436 181.79 244.615 176.98Z" fill="#E6E5F7"/>
<path fill-rule="evenodd" clip-rule="evenodd" d="M244.711 177.135C238.524 194.797 233.617 212.802 227.056 230.342C224.303 235.237 222.323 249.267 217.858 251.118C175.27 241.638 133.233 228.827 91.7189 215.282C86.2676 213.747 78.4743 208.338 74.9842 215.503C72.8564 220.232 80.2538 221.53 82.5846 224.633C84.8305 226.671 87.9753 227.114 90.8911 227.422C115.209 231.595 138.561 240.287 162.347 246.775C179.154 251.328 194.69 259.632 212.121 261.862C215.584 262.677 212.293 266.513 217.863 265.708C221.797 266.219 221.764 266.206 223.301 262.836C227.562 254.52 230.877 245.783 234.042 237.013C243.494 209.332 253.789 181.863 261.365 153.566C265.468 139.954 269.61 126.431 271.83 112.358C271.924 110.474 273.218 107.951 271.473 106.553C260.947 105.874 250.352 166.395 244.711 177.135Z" fill="#E6E5F7"/>
<path fill-rule="evenodd" clip-rule="evenodd" d="M115.676 170.572C109.693 168.195 99.7267 169.711 101.941 177.864C104.17 182.369 93.4517 183.944 99.0018 190.025C104.402 195.144 112.226 196.749 118.95 199.582C124.332 200.464 126.287 209.008 132.056 207.306C136.285 201.908 135.711 194.168 137.63 187.764C139.476 182.126 137.149 177.601 131.12 176.404C126.161 174.485 120.62 172.191 115.676 170.572Z" fill="#E6E5F7"/>
<path fill-rule="evenodd" clip-rule="evenodd" d="M135.907 121.247C150.286 125.489 152.863 106.115 138.37 105.148C126.377 104.415 123.46 118.611 135.907 121.247Z" fill="#E6E5F7"/>
<path fill-rule="evenodd" clip-rule="evenodd" d="M247.565 167.115C245.517 170.82 241.845 194.397 238.075 192.532C235.411 190.458 229.928 189.961 229.952 185.881C229.493 174.033 227.343 162.015 221.982 151.521C215.597 138.526 204.115 128.66 189.634 137.132C149.321 158.079 174.71 149.12 152.814 131.52C145.671 127.532 131.088 139.081 123.876 142.053C115.945 145.202 118.989 149.305 126.067 146.426C129.915 144.654 133.809 142.978 137.647 141.183C142.042 140.006 148.773 132.609 152.09 138.607C156.483 144.405 156.794 158.287 166.795 155.887C179.595 152.27 190.334 139.934 203.976 140.228C220.361 148.036 222.945 168.927 226.302 184.819C226.583 186.27 226.012 186.764 224.615 186.321C187.773 173.828 150.92 161.486 113.421 151.067C91.6759 145.043 101.624 144.724 108.56 123.055C113.206 112.091 116.966 100.806 121.2 89.6949C121.876 84.8322 124.85 88.1902 127.787 88.8994C146.079 94.253 164.534 98.9581 182.596 105.11C207.038 114.001 232.324 120.281 256.728 129.26C257.964 129.826 258.228 130.347 257.826 131.709C254.297 143.494 250.184 155.073 247.565 167.115ZM207.814 185.266C208.67 187.585 212.006 186.456 213.463 187.803C220.665 191.48 228.867 193.464 236.455 196.522C240.474 198.215 236.09 204.137 236.253 207.363C233.439 221.952 228.481 236.006 223.95 250.125C180.399 238.442 133.205 224.865 87.7906 215.143C65.2141 209.564 74.2748 212.211 83.0025 184.754C87.4013 174.278 91.1128 163.472 95.8034 153.12C98.3468 147.859 97.5419 148.245 102.821 149.93C106.129 150.986 109.437 152.04 112.752 153.073C138.848 160.951 164.899 170.606 190.113 179.684C191.286 180.687 193.359 180.689 194.869 180.922C198.64 182.856 203.302 186.544 207.856 185.26C207.39 185.408 206.97 185.416 206.541 185.16C206.973 185.106 207.392 185.17 207.814 185.266ZM124.246 83.3376C123.83 80.2003 129.361 68.5974 130.76 64.8361C140.82 67.8373 150.826 71.2641 160.828 74.489C195.798 85.6428 230.587 97.3656 265.852 107.576C270.044 108.041 275.422 111.458 279.194 109.207C280.279 107.931 278.267 107.099 277.357 106.577C240.706 91.8665 202.573 80.9135 165.076 68.522C156.248 65.6871 147.423 62.8415 138.596 60.0018C133.092 58.2271 125.657 54.4824 122.087 61.2431C101.01 108.576 87.0675 157.976 68.3486 206.171C66.901 209.799 66.1938 215.558 71.2094 216.608C79.4828 217.898 87.6693 219.626 95.7461 221.872C113.51 226.237 131.093 231.326 148.765 236.061C174.144 242.568 199.311 250.996 225.415 253.817C229.586 256.22 229.975 245.732 231.728 243.392C234.284 235.888 237.131 228.466 239.285 220.835C245.462 195.861 253.973 171.554 260.718 146.731C264.182 137.055 265.877 126.453 270.929 117.486C273.742 111.61 265.056 111.507 263.754 116.56C256.509 135.773 259.267 122.649 230.274 115.389C211.225 109.869 192.621 101.871 173.555 97.4694C158.333 91.2083 140.442 88.5324 124.246 83.3376Z" fill="#FAF9FF"/>
<path fill-rule="evenodd" clip-rule="evenodd" d="M265.967 45.6623C260.062 44.624 252.333 43.1451 246.005 44.9743C242.176 45.6613 236.571 49.5434 243.829 49.9721C253.1 50.029 262.096 52.2245 271.255 53.1156C282.711 51.1624 271.518 46.8234 265.967 45.6623Z" fill="#FAF9FF"/>
<path fill-rule="evenodd" clip-rule="evenodd" d="M29.889 164.897C24.5465 162.396 -5.93063 195.235 10.201 187.011C13.2738 184.512 38.1277 167.737 29.889 164.897Z" fill="#FAF9FF"/>
<path fill-rule="evenodd" clip-rule="evenodd" d="M44.0154 183.69C49.481 187.048 56.7085 175.541 61.1849 172.526C63.334 169.722 68.9603 167.033 67.6767 163.023C66.8093 162.129 65.3088 160.585 64.029 161.682C56.2863 167.91 50.2661 175.97 44.0154 183.69Z" fill="#FAF9FF"/>
<path fill-rule="evenodd" clip-rule="evenodd" d="M241.534 72.5929C245.622 72.7064 274.878 80.6655 272.574 73.5226C270.641 69.5741 223.609 67.568 241.534 72.5929Z" fill="#FAF9FF"/>
<path fill-rule="evenodd" clip-rule="evenodd" d="M219.584 58.02C216.141 57.4728 197.544 54.4246 200.377 61.302C203.735 64.0138 234.887 64.2892 219.584 58.02Z" fill="#FAF9FF"/>
<path fill-rule="evenodd" clip-rule="evenodd" d="M147.882 76.3342C145.821 73.6601 142.729 76.9922 140.941 74.1861C140.241 73.0903 139.159 72.3581 137.864 72.1578C134.499 72.5982 140.259 76.988 137.305 78.0059C135.987 78.8603 133.331 78.9498 133.19 80.8277C134.142 83.0312 137.387 80.5698 139.065 80.3374C141.179 79.3115 141.825 81.9743 143.136 82.9982C143.967 83.7522 146.456 84.6328 146.295 82.7328C144.66 79.1863 143.251 77.9879 147.882 76.3342Z" fill="#FAF9FF"/>
<path fill-rule="evenodd" clip-rule="evenodd" d="M244.001 111.54C245.588 107.236 239.337 104.848 236.515 107.571C232.332 111.947 242.545 117.46 244.001 111.54Z" fill="#FAF9FF"/>
<path fill-rule="evenodd" clip-rule="evenodd" d="M252.173 109.672C247.401 108.543 248.678 119.3 253.511 116.923C257.337 115.386 256.161 109.942 252.173 109.672Z" fill="#FAF9FF"/>
<path fill-rule="evenodd" clip-rule="evenodd" d="M225.648 105.447C225.107 107.742 228.165 110.257 230.222 108.534C233.778 104.641 227.918 100.185 225.648 105.447Z" fill="#FAF9FF"/>
<path fill-rule="evenodd" clip-rule="evenodd" d="M137.984 119.255C128.061 116.19 139.671 109.44 144.71 109.116C151.939 109.973 144.44 122.039 137.984 119.255ZM135.324 124.772C143.531 127.638 151.818 123.358 152.903 115.06C158.48 102.067 138.6 100.675 131.043 106.605C123.369 112.197 125.912 123.248 135.324 124.772Z" fill="#462949"/>
<path fill-rule="evenodd" clip-rule="evenodd" d="M107.662 195.79C107.64 195.852 107.619 195.914 107.597 195.977C101.011 193.746 95.6269 195.365 101.54 187.177C113.587 163.092 113.619 169.571 136.113 178.186C138.972 180.932 132.936 195.18 132.402 199.709C131.288 202.367 130.274 204.421 127.187 203.072C120.635 200.778 114.177 198.192 107.662 195.79ZM143.637 187.435C145.62 180.864 146.044 175.51 138.595 173.094C131.156 170.695 123.231 166.347 115.279 167.424C113.785 168.269 112.425 168.101 110.86 167.593C104.806 164.039 93.4858 190.596 94.2556 195.215C94.3823 197.018 96.4026 197.19 97.7919 197.598C104.865 199.196 111.417 202.253 118.143 204.82C137.645 214.836 138.64 203.516 143.637 187.435Z" fill="#FAF9FF"/>
<path fill-rule="evenodd" clip-rule="evenodd" d="M209.843 209.93C210.254 204.154 208.676 197.431 203.794 193.816C198.869 189.411 193.875 202.216 189.74 197.651C181.522 176.141 179.579 195.122 174.222 191.18C172.067 188.098 168.601 179.268 163.981 183.384C163.049 185.989 159.816 188.747 160.53 191.507C162.332 192.515 164.255 190.755 165.434 189.512C169.119 188.528 170.675 201.238 177.268 197.191C179.017 196.705 181.303 192.66 182.905 194.958C189.636 216.105 199.42 194.394 202.436 201.025C204.288 203.718 205.185 214.988 209.843 209.93Z" fill="#FAF9FF"/>
<path fill-rule="evenodd" clip-rule="evenodd" d="M119.478 179.699C120.985 172.862 109.336 177.968 112.573 180.994C115.157 183.106 118.501 183.692 119.478 179.699Z" fill="#FAF9FF"/>
<path fill-rule="evenodd" clip-rule="evenodd" d="M130.011 183.45C131.273 180.468 126.302 179.742 125.18 181.877C123.781 185.127 129.431 187.133 130.011 183.45Z" fill="#FAF9FF"/>
</g>
</svg>
