<svg width="295" height="164" viewBox="0 0 295 164" fill="none" xmlns="http://www.w3.org/2000/svg">
<g opacity="0.08">
<path fill-rule="evenodd" clip-rule="evenodd" d="M135.981 13.3567C123.652 10.7582 126.616 -3.56941 138.502 -2.88339C152.867 -1.97759 150.218 17.5653 135.981 13.3567ZM244.615 68.9805C244.304 63.6405 241.984 58.2744 244.974 53.4489C245.334 49.4186 249.696 48.1408 250.528 44.2463C251.827 37.7002 254.828 31.1643 254.119 24.4142C253.975 23.345 254.217 22.9353 255.17 22.3723C257.601 20.9348 257.648 17.5679 255.247 16.1342C234.592 7.28308 213.375 -0.666779 191.99 -7.62632C188.729 -9.32106 190.121 -3.33608 187.252 -4.66085C173.594 -9.28704 159.542 -12.6298 145.872 -17.183C140.903 -17.5365 119.547 -27.0203 118.686 -22.4702C112.101 -11.5752 109.218 0.956308 105.54 13.0174C99.3227 34.4537 100.089 47.6181 126.555 38.3734C132.219 35.9836 158.86 21.1924 161.409 29.6931C161.852 40.1869 168.458 47.2964 178.486 40.561C183.888 36.6434 189.543 31.4391 196.395 30.892C212.966 31.2083 223.687 48.9945 226.158 63.5945C227.908 70.6669 225.462 82.7076 234.748 84.7253C242.243 87.5872 241.436 73.7898 244.615 68.9805Z" fill="#E6E5F7"/>
<path fill-rule="evenodd" clip-rule="evenodd" d="M244.711 69.1348C238.524 86.7967 233.617 104.802 227.056 122.342C224.303 127.237 222.323 141.267 217.858 143.118C175.27 133.638 133.233 120.827 91.7189 107.282C86.2676 105.747 78.4743 100.338 74.9842 107.503C72.8564 112.232 80.2538 113.53 82.5846 116.633C84.8305 118.671 87.9753 119.114 90.8911 119.422C115.209 123.595 138.561 132.287 162.347 138.775C179.154 143.328 194.69 151.632 212.121 153.862C215.584 154.677 212.293 158.513 217.863 157.708C221.797 158.219 221.764 158.206 223.301 154.836C227.562 146.52 230.877 137.783 234.042 129.013C243.494 101.332 253.789 73.8631 261.365 45.5662C265.468 31.9538 269.61 18.4306 271.83 4.35773C271.924 2.47376 273.218 -0.0486051 271.473 -1.44694C260.947 -2.12627 250.352 58.3955 244.711 69.1348Z" fill="#E6E5F7"/>
<path fill-rule="evenodd" clip-rule="evenodd" d="M115.676 62.572C109.693 60.1948 99.7267 61.7109 101.941 69.8636C104.17 74.3692 93.4517 75.9439 99.0018 82.0248C104.402 87.1436 112.226 88.7488 118.95 91.5814C124.332 92.4638 126.287 101.008 132.056 99.3062C136.285 93.908 135.711 86.1673 137.63 79.7636C139.476 74.1253 137.149 69.601 131.12 68.4038C126.161 66.4848 120.62 64.1908 115.676 62.572Z" fill="#E6E5F7"/>
<path fill-rule="evenodd" clip-rule="evenodd" d="M135.907 13.2469C150.286 17.4887 152.863 -1.88541 138.37 -2.85151C126.377 -3.58494 123.46 10.6111 135.907 13.2469Z" fill="#E6E5F7"/>
<path fill-rule="evenodd" clip-rule="evenodd" d="M247.564 59.1154C245.516 62.8198 241.844 86.3974 238.074 84.5322C235.41 82.4582 229.927 81.9612 229.951 77.8811C229.493 66.0326 227.342 54.0149 221.981 43.5209C215.596 30.5258 204.115 20.6601 189.633 29.1319C149.32 50.0791 174.709 41.1198 152.813 23.5204C145.67 19.5322 131.087 31.0814 123.875 34.0533C115.944 37.202 118.988 41.3047 126.066 38.426C129.915 36.6542 133.808 34.9781 137.646 33.183C142.041 32.0058 148.772 24.6093 152.089 30.6074C156.482 36.4052 156.793 50.287 166.794 47.8872C179.594 44.2698 190.333 31.9337 203.975 32.2275C220.36 40.0362 222.944 60.9267 226.301 76.8194C226.583 78.2696 226.011 78.764 224.614 78.3215C187.772 65.8275 150.919 53.4863 113.42 43.0672C91.6749 37.0433 101.623 36.7243 108.559 15.0553C113.205 4.09065 116.965 -7.1938 121.199 -18.3051C121.875 -23.1678 124.849 -19.8098 127.786 -19.1007C146.078 -13.7471 164.533 -9.04191 182.595 -2.89024C207.037 6.00116 232.323 12.2806 256.727 21.2604C257.963 21.8262 258.227 22.3467 257.825 23.7087C254.296 35.4944 250.183 47.0732 247.564 59.1154ZM207.813 77.2662C208.669 79.5846 212.005 78.4556 213.462 79.803C220.664 83.4799 228.866 85.4636 236.454 88.5219C240.473 90.2149 236.089 96.137 236.252 99.363C233.438 113.952 228.48 128.006 223.949 142.125C180.398 130.442 133.204 116.865 87.7897 107.143C65.2131 101.564 74.2739 104.211 83.0015 76.7538C87.4003 66.2784 91.1119 55.4718 95.8024 45.1198C98.3458 39.8593 97.5409 40.2455 102.82 41.9303C106.128 42.9859 109.436 44.0405 112.751 45.0735C138.847 52.9507 164.898 62.6064 190.112 71.6841C191.285 72.6874 193.359 72.6893 194.868 72.9216C198.639 74.8559 203.301 78.5445 207.855 77.2603C207.389 77.4077 206.969 77.4159 206.54 77.1601C206.972 77.1055 207.391 77.17 207.813 77.2662ZM124.245 -24.6624C123.829 -27.7997 129.36 -39.4026 130.759 -43.1639C140.819 -40.1627 150.825 -36.7359 160.827 -33.511C195.797 -22.3572 230.586 -10.6345 265.851 -0.424183C270.043 0.0407936 275.421 3.45769 279.193 1.20746C280.278 -0.0686657 278.266 -0.901449 277.356 -1.42268C240.705 -16.1335 202.572 -27.0865 165.075 -39.478C156.247 -42.3129 147.422 -45.1585 138.595 -47.9982C133.091 -49.773 125.656 -53.5177 122.086 -46.7569C101.009 0.576105 87.0665 49.9763 68.3476 98.1707C66.9001 101.799 66.1928 107.558 71.2084 108.608C79.4818 109.898 87.6683 111.626 95.7451 113.872C113.509 118.237 131.092 123.326 148.764 128.061C174.143 134.568 199.31 142.996 225.414 145.817C229.585 148.22 229.974 137.732 231.727 135.392C234.283 127.888 237.13 120.466 239.284 112.835C245.461 87.8613 253.972 63.5538 260.717 38.7306C264.181 29.0554 265.876 18.4528 270.928 9.48608C273.741 3.60972 265.055 3.50687 263.753 8.55997C256.508 27.7726 259.267 14.6486 230.273 7.3886C211.224 1.86913 192.62 -6.12914 173.554 -10.5306C158.332 -16.7917 140.441 -19.4676 124.245 -24.6624Z" fill="#FAF9FF"/>
<path fill-rule="evenodd" clip-rule="evenodd" d="M29.888 56.8973C24.5455 54.3962 -5.93161 87.235 10.2001 79.0108C13.2729 76.5124 38.1268 59.7374 29.888 56.8973Z" fill="#FAF9FF"/>
<path fill-rule="evenodd" clip-rule="evenodd" d="M44.0144 75.69C49.48 79.0481 56.7075 67.541 61.1839 64.5258C63.333 61.7215 68.9593 59.0328 67.6758 55.023C66.8083 54.1287 65.3078 52.5848 64.028 53.6821C56.2853 59.91 50.2651 67.9697 44.0144 75.69Z" fill="#FAF9FF"/>
<path fill-rule="evenodd" clip-rule="evenodd" d="M244 3.53979C245.587 -0.764392 239.336 -3.15216 236.514 -0.42887C232.331 3.94719 242.544 9.46027 244 3.53979Z" fill="#FAF9FF"/>
<path fill-rule="evenodd" clip-rule="evenodd" d="M252.172 1.67154C247.4 0.543015 248.677 11.2995 253.51 8.92331C257.336 7.3856 256.16 1.94157 252.172 1.67154Z" fill="#FAF9FF"/>
<path fill-rule="evenodd" clip-rule="evenodd" d="M225.647 -2.55268C225.106 -0.258393 228.164 2.25655 230.221 0.533514C233.777 -3.35948 227.917 -7.81504 225.647 -2.55268Z" fill="#FAF9FF"/>
<path fill-rule="evenodd" clip-rule="evenodd" d="M137.983 11.2545C128.06 8.19037 139.67 1.43982 144.709 1.11566C151.938 1.97328 144.44 14.0389 137.983 11.2545ZM135.323 16.772C143.53 19.6379 151.817 15.3578 152.902 7.05969C158.479 -5.93305 138.599 -7.32514 131.042 -1.39539C123.368 4.19678 125.911 15.2476 135.323 16.772Z" fill="#462949"/>
<path fill-rule="evenodd" clip-rule="evenodd" d="M107.661 87.7896C107.639 87.852 107.618 87.9145 107.596 87.9772C101.01 85.7464 95.6259 87.3649 101.539 79.1771C113.586 55.0923 113.618 61.5716 136.112 70.1858C138.971 72.9323 132.935 87.1797 132.401 91.7089C131.287 94.3668 130.273 96.4215 127.186 95.0724C120.634 92.7777 114.177 90.1919 107.661 87.7896ZM143.636 79.4352C145.619 72.8638 146.043 67.5099 138.595 65.0944C131.155 62.6949 123.23 58.3475 115.278 59.4236C113.784 60.2692 112.424 60.1012 110.859 59.5933C104.805 56.0395 93.4848 82.5966 94.2546 87.2155C94.3813 89.0182 96.4016 89.1905 97.7909 89.5985C104.864 91.1962 111.416 94.2527 118.142 96.8205C137.644 106.836 138.639 95.5157 143.636 79.4352Z" fill="#FAF9FF"/>
<path fill-rule="evenodd" clip-rule="evenodd" d="M209.842 101.93C210.253 96.1536 208.675 89.4306 203.793 85.8155C198.868 81.4107 193.874 94.2156 189.739 89.6505C181.521 68.1411 179.578 87.1221 174.221 83.1797C172.066 80.098 168.6 71.2678 163.98 75.3842C163.048 77.9891 159.815 80.7471 160.529 83.5067C162.331 84.5154 164.254 82.7551 165.433 81.5118C169.118 80.5282 170.674 93.2376 177.267 89.1912C179.016 88.705 181.302 84.6599 182.904 86.9581C189.635 108.105 199.419 86.3938 202.435 93.0252C204.287 95.7183 205.184 106.988 209.842 101.93Z" fill="#FAF9FF"/>
<path fill-rule="evenodd" clip-rule="evenodd" d="M170.372 100.011C167.313 99.7471 161.114 95.8896 159.545 99.4878C159.439 100.266 159.871 100.827 161.162 101.238C174.07 104.662 186.498 109.714 199.489 112.822C205.616 109.835 173.422 101.255 170.428 99.8108L170.372 100.011Z" fill="#FAF9FF"/>
<path fill-rule="evenodd" clip-rule="evenodd" d="M176.906 113.032C153.632 107.304 186.748 121.423 192.766 120.737C195.416 118.27 179.232 113.752 176.9 113.054C176.902 113.046 176.904 113.039 176.906 113.032Z" fill="#FAF9FF"/>
<path fill-rule="evenodd" clip-rule="evenodd" d="M110.412 79.8992C108 87.3133 127.951 86.0157 122.817 81.2672C118.578 82.2597 115.029 81.6178 112.464 77.8223C111.042 77.0089 110.868 78.9227 110.412 79.8992Z" fill="#FAF9FF"/>
<path fill-rule="evenodd" clip-rule="evenodd" d="M119.477 71.6989C120.984 64.8616 109.335 69.9684 112.572 72.9942C115.156 75.1055 118.5 75.6916 119.477 71.6989Z" fill="#FAF9FF"/>
<path fill-rule="evenodd" clip-rule="evenodd" d="M130.01 75.4498C131.272 72.4677 126.301 71.7419 125.179 73.8774C123.78 77.1268 129.43 79.1331 130.01 75.4498Z" fill="#FAF9FF"/>
</g>
</svg>
