<svg width="182" height="40" viewBox="0 0 182 40" fill="none" xmlns="http://www.w3.org/2000/svg">
<g clip-path="url(#clip0_480_64415)">
<path d="M39.7928 19.9718C39.7928 9.0268 30.9969 0.112835 20.128 0H96.5459C107.527 0 116.379 8.97038 116.379 19.9718C116.379 30.9732 107.471 39.9436 96.5459 39.9436H19.96C30.8848 39.9436 39.7928 30.9732 39.7928 19.9718Z" fill="black"/>
<path d="M19.9041 0C19.9601 0 20.0722 0 20.1282 0C30.997 0.112835 39.7369 9.0268 39.7369 19.9718C39.7369 30.9168 30.885 39.9436 19.9041 39.9436C8.97924 40 0.0712891 31.0296 0.0712891 19.9718C0.0712891 8.91396 8.97924 0 19.9041 0Z" fill="#C60C30"/>
<path d="M19.7917 32.4409L30.2123 21.9473L19.7917 11.4536L9.37107 21.9473L19.7917 32.4409ZM30.3804 22.0037C30.3804 22.0037 29.2039 24.0912 25.6183 27.7019C21.9767 31.369 19.7917 32.6102 19.7917 32.6102C19.7917 32.6102 17.7188 31.4254 14.1332 27.8147C10.4916 24.1476 9.25902 22.0037 9.25902 22.0037C9.25902 22.0037 10.4355 19.9163 14.0211 16.3055C17.6627 12.6384 19.7917 11.3972 19.7917 11.3972C19.7917 11.3972 21.8646 12.582 25.5062 16.1927C29.1478 19.8598 30.3804 22.0037 30.3804 22.0037ZM19.7917 32.4409L30.2123 21.9473L19.7917 11.4536L9.37107 21.9473L19.7917 32.4409ZM30.3804 22.0037C30.3804 22.0037 29.2039 24.0912 25.6183 27.7019C21.9767 31.369 19.7917 32.6102 19.7917 32.6102C19.7917 32.6102 17.7188 31.4254 14.1332 27.8147C10.4916 24.1476 9.25902 22.0037 9.25902 22.0037C9.25902 22.0037 10.4355 19.9163 14.0211 16.3055C17.6627 12.6384 19.7917 11.3972 19.7917 11.3972C19.7917 11.3972 21.8646 12.582 25.5062 16.1927C29.1478 19.8598 30.3804 22.0037 30.3804 22.0037ZM29.3719 21.8345H28.4195V20.8754L29.3719 21.8345ZM27.355 19.8034V21.8345H26.2906V18.7315L27.355 19.8034ZM25.2261 17.6596V21.8345H24.1616V16.644L25.2261 17.716V17.6596ZM23.1532 15.5721V21.8345H22.0887V14.5002L23.1532 15.5721ZM21.0242 13.4282V21.8345H19.9598V12.3563L21.0242 13.4282ZM10.2675 22.1165H11.2199V23.0756L10.2675 22.1165ZM12.2844 24.1476V22.1165H13.3488V25.2195L12.2844 24.1476ZM14.4133 26.2914V22.1165H15.4778V27.307L14.4133 26.235V26.2914ZM16.4862 28.4353V22.173H17.5507V29.5072L16.4862 28.4353ZM18.6152 30.5227V22.1165H19.6796V31.5947L18.6152 30.5227ZM19.9598 22.1165H22.0887V24.7682H19.9598V22.1165ZM22.0887 29.4508L19.9598 31.5947V25.8401H22.0887V29.4508ZM17.5507 14.5002L19.6796 12.3563V18.1109H17.5507V14.5002ZM19.6796 21.8345H17.5507V19.1828H19.6796V21.8345ZM30.8846 22.0037C30.8846 21.778 31.0527 21.5524 31.3328 21.5524C31.6129 21.5524 31.781 21.7216 31.781 22.0037C31.781 22.2858 31.5569 22.455 31.3328 22.455C31.1087 22.455 30.8846 22.2294 30.8846 22.0037ZM7.8584 22.0037C7.8584 21.778 8.0825 21.5524 8.3066 21.5524C8.5307 21.5524 8.7548 21.7216 8.7548 22.0037C8.7548 22.2858 8.58672 22.455 8.3066 22.455C8.02647 22.455 7.8584 22.2294 7.8584 22.0037ZM19.3995 33.5693C19.3995 33.3436 19.5676 33.118 19.8477 33.118C20.1278 33.118 20.2959 33.2872 20.2959 33.5693C20.2959 33.8514 20.1278 34.0206 19.8477 34.0206C19.5676 34.0206 19.3995 33.8514 19.3995 33.5693ZM17.1585 6.71457C17.0465 6.71457 16.8784 6.65815 16.7663 6.65815C16.1501 6.65815 15.7019 6.99666 15.7019 7.448C15.7019 7.89934 15.8139 7.84292 15.982 8.01217L15.5338 8.46351C15.2537 8.18142 15.0856 7.84292 15.0856 7.448C15.0856 6.65815 15.87 5.98114 16.8224 5.98114C17.7748 5.98114 17.3266 5.98114 17.4947 6.09398C17.8308 5.75547 18.335 5.47338 18.8953 5.47338C19.4555 5.47338 19.5676 5.58622 19.8477 5.69905C20.1278 5.5298 20.464 5.47338 20.8001 5.47338C21.3604 5.47338 21.8646 5.69905 22.2008 6.09398C22.4249 6.03756 22.649 5.98114 22.9291 5.98114C23.8815 5.98114 24.6659 6.65815 24.6659 7.448C24.6659 8.23784 24.4978 8.18142 24.2177 8.46351L23.7695 8.01217C23.9375 7.84292 24.0496 7.67367 24.0496 7.448C24.0496 6.99666 23.5454 6.65815 22.9851 6.65815C22.4249 6.65815 22.705 6.65815 22.5929 6.71457C22.5929 6.8274 22.5929 6.88382 22.5929 6.99666C22.5929 7.27874 22.4809 7.56083 22.3128 7.7865L21.8646 7.27874C21.9206 7.16591 21.9206 7.05307 21.9206 6.94024C21.9206 6.4889 21.4724 6.15039 20.8562 6.15039C20.2399 6.15039 20.408 6.15039 20.2399 6.31965V7.27874H19.5676V6.31965C19.3995 6.20681 19.1754 6.15039 18.9513 6.15039C18.3911 6.15039 17.8868 6.4889 17.8868 6.94024C17.8868 7.39158 17.8868 7.16591 17.9429 7.27874L17.4386 7.7865C17.2706 7.56083 17.1585 7.27874 17.1585 6.99666C17.1585 6.71457 17.1585 6.8274 17.1585 6.71457ZM16.5983 10.2689L16.9905 10.833C17.8308 10.4381 18.8393 10.2125 19.8477 10.2125C20.8562 10.2125 21.8646 10.4945 22.705 10.833L23.0972 10.2689C22.1447 9.81753 21.0242 9.53544 19.8477 9.53544C18.6712 9.53544 17.5507 9.81753 16.5983 10.2689ZM19.3995 4.62712C19.3995 4.40145 19.6236 4.17578 19.8477 4.17578C20.0718 4.17578 20.2959 4.40145 20.2959 4.62712C20.2959 4.85279 20.0718 5.07846 19.8477 5.07846C19.6236 5.07846 19.3995 4.85279 19.3995 4.62712ZM16.5983 9.7047C16.4302 9.7047 16.3182 9.59186 16.2061 9.36619C16.3182 9.19694 16.4862 9.14052 16.6543 9.14052C16.8224 9.14052 16.9904 9.30977 17.0465 9.47902C16.9344 9.64828 16.7664 9.7047 16.5983 9.7047ZM16.2621 8.91485C16.2061 8.7456 16.038 8.68918 15.8139 8.63276C15.7019 8.80202 15.6459 8.97127 15.7579 9.14052C15.8139 9.30977 15.982 9.36619 16.1501 9.42261C16.2621 9.25336 16.3182 9.0841 16.2061 8.91485M18.279 9.19694C18.1109 9.19694 17.9989 9.02769 17.9429 8.80202C18.1109 8.68918 18.279 8.63276 18.4471 8.68918C18.6152 8.68918 18.7272 8.91485 18.7832 9.0841C18.6152 9.19694 18.4471 9.25336 18.279 9.19694ZM17.8308 9.30977C17.9429 9.19694 17.9989 9.02769 17.9429 8.80202C17.7748 8.80202 17.5507 8.80201 17.4386 8.85843C17.3266 8.97127 17.2706 9.14052 17.3266 9.36619C17.4947 9.42261 17.7188 9.36619 17.8308 9.30977ZM18.1109 8.35068C18.1109 8.18142 17.9429 8.06859 17.7748 8.01217C17.6067 8.12501 17.5507 8.29426 17.6067 8.46351C17.6067 8.63276 17.7748 8.7456 17.9429 8.80202C18.1109 8.68918 18.167 8.51993 18.1109 8.35068ZM23.0411 9.7047C23.2092 9.7047 23.3213 9.59186 23.4333 9.36619C23.3213 9.19694 23.1532 9.14052 22.9851 9.14052C22.817 9.14052 22.705 9.30977 22.5929 9.47902C22.705 9.64828 22.8731 9.7047 23.0411 9.7047ZM23.3213 8.91485C23.3773 8.7456 23.5454 8.68918 23.7134 8.63276C23.8255 8.80202 23.8815 8.97127 23.8255 9.14052C23.7695 9.30977 23.6014 9.36619 23.3773 9.42261C23.2652 9.25336 23.2092 9.0841 23.3213 8.91485ZM21.3604 9.19694C21.5285 9.19694 21.6405 9.02769 21.6965 8.80202C21.5285 8.68918 21.3604 8.63276 21.1923 8.68918C21.0242 8.68918 20.9122 8.91485 20.8562 9.0841C21.0242 9.19694 21.1923 9.25336 21.3604 9.19694ZM21.8086 9.30977C21.6965 9.19694 21.6405 9.02769 21.6965 8.80202C21.8646 8.80202 22.0887 8.80201 22.2008 8.85843C22.3128 8.97127 22.3688 9.14052 22.3128 9.36619C22.1447 9.42261 21.9206 9.36619 21.8086 9.30977ZM21.4724 8.35068C21.4724 8.18142 21.6405 8.06859 21.8086 8.01217C21.9206 8.12501 22.0327 8.29426 21.9767 8.46351C21.9767 8.63276 21.8086 8.7456 21.6405 8.80202C21.4724 8.68918 21.4164 8.51993 21.4724 8.35068ZM19.6236 9.0841C19.7917 9.02769 19.8477 8.85843 19.8477 8.63276C19.6796 8.51993 19.5116 8.51993 19.3435 8.63276C19.1754 8.68918 19.1194 8.85843 19.1194 9.0841C19.2875 9.19694 19.4555 9.19694 19.6236 9.0841ZM20.0718 9.0841C19.9037 9.02769 19.8477 8.85843 19.8477 8.63276C20.0158 8.51993 20.1839 8.51993 20.3519 8.63276C20.52 8.68918 20.576 8.85843 20.576 9.0841C20.408 9.19694 20.2399 9.19694 20.0718 9.0841ZM19.5676 8.18142C19.5676 8.01217 19.6796 7.84292 19.8477 7.73008C20.0158 7.84292 20.1278 8.01217 20.1278 8.18142C20.1278 8.35068 20.0158 8.51993 19.8477 8.57635C19.6796 8.46351 19.5676 8.29426 19.5676 8.18142Z" fill="white"/>
<path d="M23.1533 28.3777V25.8389H25.6744L23.1533 28.3777Z" fill="white"/>
<path d="M13.9648 18.1101L16.486 15.5713V18.1101H13.9648Z" fill="white"/>
<path d="M23.1533 22.1157V23.4697V24.7673H24.9461H26.7389L29.3721 22.1157H23.1533Z" fill="white"/>
<path d="M12.9007 19.1821L10.2676 21.8338H16.4863V19.1821H12.9007Z" fill="white"/>
<path d="M99.9069 25.1058C99.9069 26.0085 99.2346 26.5163 98.3382 26.5163C97.4418 26.5163 97.4418 26.2342 97.4418 25.7264C97.4418 25.2187 97.89 24.9366 98.3382 24.9366L99.9069 24.8237V25.1058ZM101.868 27.4754V26.4034C101.868 26.4034 101.756 26.4034 101.7 26.4034C101.476 26.4034 101.364 26.2906 101.364 26.0085V23.6954C101.364 23.3005 101.364 22.8491 101.196 22.4542C100.859 21.5515 99.963 21.213 98.8985 21.213C97.834 21.213 96.4334 21.8336 96.3774 23.2441H97.778C97.778 22.6799 98.2262 22.3414 98.8985 22.3414C99.5708 22.3414 99.963 22.7363 99.963 23.3005V23.6954L98.1702 23.8082C96.9936 23.8646 96.0972 24.5417 96.0972 25.7264C96.0972 26.9112 96.8256 27.6446 98.3382 27.6446C99.8509 27.6446 99.9069 27.1933 100.187 26.7419C100.187 27.1933 100.579 27.5882 101.252 27.5882C101.924 27.5882 101.756 27.5318 101.98 27.4189L101.868 27.4754ZM94.8087 27.5318V23.4133C94.8087 22.1157 94.0243 21.213 92.7358 21.213C91.4472 21.213 91.2791 21.4951 90.943 22.1721L90.8309 21.3823H89.5984V27.5318H91.055V24.993C91.055 24.4852 91.055 23.8082 91.2791 23.3569C91.5032 22.9055 91.8394 22.567 92.3436 22.567C93.1279 22.567 93.352 23.0184 93.352 23.7518V27.5318H94.8087ZM86.629 24.4288C86.629 24.993 86.573 25.6136 86.1808 26.0085C85.9567 26.2342 85.6766 26.4034 85.2284 26.4034C84.7802 26.4034 84.5001 26.2342 84.276 26.0085C83.9399 25.6136 83.8278 25.0494 83.8278 24.4288C83.8278 23.8082 83.8838 23.244 84.276 22.8491C84.5001 22.6235 84.7802 22.4542 85.2284 22.4542C85.6766 22.4542 85.9567 22.6235 86.1808 22.8491C86.517 23.244 86.629 23.8082 86.629 24.4288ZM88.1417 24.4288C88.1417 23.3569 87.8616 22.7363 87.4134 22.1721C86.9652 21.6644 86.1809 21.213 85.2845 21.213C84.3881 21.213 83.5477 21.6644 83.1555 22.1721C82.7073 22.7363 82.4272 23.4133 82.4272 24.4288C82.4272 25.4443 82.7073 26.1213 83.1555 26.6855C83.6037 27.1933 84.3881 27.6446 85.2845 27.6446C86.1809 27.6446 87.0212 27.1933 87.4134 26.6855C87.8616 26.1213 88.1417 25.4443 88.1417 24.4288ZM81.6428 27.5318V26.2906C81.5868 26.2906 81.5308 26.2906 81.4187 26.2906C80.9145 26.2906 80.8025 26.0649 80.8025 25.67V18.8999H79.2898V25.8957C79.2898 27.0804 79.9621 27.5318 80.9705 27.5318C81.979 27.5318 81.3067 27.5318 81.6428 27.4754M76.4885 23.8646H73.8554C73.8554 23.4697 73.9674 23.1876 74.1915 22.9055C74.4156 22.6235 74.7518 22.4542 75.2 22.4542C75.6482 22.4542 75.9283 22.6235 76.1524 22.7927C76.3765 23.0748 76.5446 23.4133 76.5446 23.8646M77.9452 24.4852C77.9452 23.6954 77.8892 23.0184 77.441 22.3414C76.9367 21.5515 76.0964 21.213 75.2 21.213C74.3036 21.213 73.6873 21.4951 73.2391 22.0029C72.6228 22.6235 72.3427 23.4697 72.3427 24.4852C72.3427 25.5008 72.6789 26.347 73.2951 26.9676C73.7994 27.4189 74.4156 27.701 75.256 27.701C76.0964 27.701 76.8247 27.4754 77.3289 26.8548C77.553 26.5727 77.8331 26.0649 77.8331 25.7264H76.4325C76.3765 25.9521 76.2644 26.1213 76.1524 26.2342C75.9283 26.4598 75.7042 26.5163 75.256 26.5163C74.8078 26.5163 74.5837 26.347 74.3596 26.1213C74.0795 25.8393 73.9114 25.3879 73.9114 24.9366H78.0012C78.0012 24.8237 78.0012 24.5417 78.0012 24.5417M71.4463 25.3315H69.9897C69.9897 25.5572 69.9336 25.7264 69.8216 25.8957C69.6535 26.1778 69.3174 26.347 68.8692 26.347C68.421 26.347 68.1969 26.1778 67.9728 25.9521C67.6366 25.5572 67.5806 24.993 67.5806 24.3724C67.5806 23.7518 67.6366 23.1876 67.9728 22.7927C68.1969 22.567 68.477 22.3978 68.8692 22.3978C69.2613 22.3978 69.6535 22.567 69.8216 22.8491C69.9336 23.0184 69.9897 23.1876 69.9897 23.4133H71.4463C71.4463 22.9055 71.2782 22.4542 70.9981 22.0593C70.5499 21.5515 69.8216 21.1002 68.9252 21.1002C68.0288 21.1002 67.1884 21.5515 66.7962 22.0593C66.348 22.6235 66.1239 23.4133 66.1239 24.316C66.1239 25.2187 66.348 26.0085 66.7962 26.5727C67.2444 27.0804 67.9728 27.5318 68.9252 27.5318C69.8776 27.5318 70.6059 27.0804 70.9981 26.5727C71.2782 26.1778 71.4463 25.7264 71.4463 25.2187M65.6197 22.7363V21.3259C65.4516 21.3259 65.3396 21.3259 65.1715 21.3259C64.4432 21.3259 63.7149 21.6079 63.4348 22.3414L63.3227 21.4387H62.0902V27.5882H63.6028V24.4852C63.6028 23.4697 64.1631 22.7363 65.1715 22.7363C66.18 22.7363 65.5077 22.7363 65.6757 22.7927M58.7847 25.1058C58.7847 26.0085 58.1124 26.5163 57.216 26.5163C56.3196 26.5163 56.3196 26.2342 56.3196 25.7264C56.3196 25.2187 56.7678 24.9366 57.216 24.9366L58.7847 24.8237V25.1058ZM60.7456 27.4754V26.4034C60.7456 26.4034 60.6335 26.4034 60.5775 26.4034C60.3534 26.4034 60.2413 26.2906 60.2413 26.0085V23.6954C60.2413 23.3005 60.2413 22.8491 60.0733 22.4542C59.7371 21.5515 58.8407 21.213 57.7762 21.213C56.7118 21.213 55.3111 21.8336 55.2551 23.2441H56.6557C56.6557 22.6799 57.1039 22.3414 57.7762 22.3414C58.4485 22.3414 58.8407 22.7363 58.8407 23.3005V23.6954L57.0479 23.8082C55.8714 23.8646 54.975 24.5417 54.975 25.7264C54.975 26.9112 55.7033 27.6446 57.216 27.6446C58.7287 27.6446 58.7847 27.1933 59.0648 26.7419C59.0648 27.1933 59.457 27.5882 60.1293 27.5882C60.8016 27.5882 60.6335 27.5318 60.8576 27.4189L60.7456 27.4754ZM52.5099 25.0494C52.5099 25.8957 51.7256 26.1778 51.0533 26.1778H49.2044V23.8082H51.1093C51.8936 23.8082 52.5659 24.1467 52.5659 25.0494M52.3418 21.4951C52.3418 22.285 51.7816 22.567 51.0533 22.567H49.1484V20.4232H50.9972C51.6695 20.4232 52.2858 20.7053 52.2858 21.4951M54.0226 25.1058C54.0226 24.316 53.6304 23.5826 52.8461 23.1876C53.5744 22.8491 53.8545 22.1157 53.8545 21.3823C53.8545 20.6488 53.5184 19.9718 52.9021 19.5769C52.3418 19.182 51.6135 19.1256 50.9412 19.1256H47.6357V27.5318H50.9412C51.7256 27.5318 52.5099 27.4754 53.1822 26.9676C53.7985 26.5163 54.0226 25.8393 54.0226 25.1058Z" fill="white"/>
<path d="M100.747 13.2015H98.8426C98.8426 12.9194 98.8986 12.6937 99.0667 12.5245C99.2347 12.2988 99.4588 12.186 99.795 12.186C100.131 12.186 100.299 12.2988 100.467 12.4681C100.635 12.6373 100.747 12.9194 100.747 13.2579M101.756 13.6528C101.756 13.0887 101.7 12.5809 101.364 12.1296C100.972 11.5654 100.411 11.3397 99.739 11.3397C99.0667 11.3397 98.6745 11.5654 98.3383 11.9039C97.8901 12.3552 97.7221 12.9758 97.7221 13.6528C97.7221 14.3298 97.9462 15.0069 98.3944 15.4018C98.7305 15.7403 99.1787 15.966 99.795 15.966C100.411 15.966 100.915 15.7967 101.252 15.3454C101.42 15.1197 101.588 14.7812 101.644 14.4991H100.635C100.635 14.6684 100.523 14.7812 100.411 14.894C100.243 15.0633 100.075 15.1197 99.795 15.1197C99.5149 15.1197 99.2908 15.0069 99.1227 14.8376C98.8986 14.6119 98.7865 14.3298 98.7865 13.9913H101.756C101.756 13.8785 101.756 13.7093 101.756 13.7093M96.1534 13.6528C96.1534 14.2734 95.9853 15.0633 95.1449 15.0633C94.3046 15.0633 94.5847 14.894 94.4166 14.7248C94.1925 14.4427 94.1365 14.0478 94.1365 13.6528C94.1365 13.2579 94.1925 12.863 94.4166 12.5809C94.5847 12.4117 94.8088 12.2424 95.1449 12.2424C95.9853 12.2424 96.1534 13.0322 96.1534 13.6528ZM97.1618 15.8531V9.70361H96.0974V11.7346C95.9293 11.509 95.4811 11.3397 94.9208 11.3397C94.3606 11.3397 94.1365 11.4526 93.8564 11.6782C93.3521 12.1296 93.072 12.8066 93.072 13.6528C93.072 14.4991 93.3521 15.1761 93.8564 15.571C94.1365 15.7967 94.4726 15.966 94.9208 15.966C95.369 15.966 95.8733 15.7967 96.1534 15.4018V15.9095H97.1058L97.1618 15.8531ZM90.887 15.7967V14.894C90.6069 14.894 90.4388 14.894 90.2147 14.894C89.8786 14.894 89.7105 14.7248 89.7105 14.3863V12.2424H90.831V11.3397H89.7105V9.92928L88.646 10.2114V11.3397H87.8617V12.2424H88.646V14.4991C88.646 15.3454 89.0942 15.8531 89.9906 15.8531C90.887 15.8531 90.6069 15.8531 90.887 15.7403M87.4695 15.8531V12.9194C87.4695 12.0167 86.9093 11.3397 85.9569 11.3397C85.0044 11.3397 84.9484 11.5654 84.6683 12.0167V11.4526H83.7159V15.9095H84.7803V14.1042C84.7803 13.7093 84.7803 13.2579 84.9484 12.9194C85.1165 12.5809 85.3406 12.3552 85.7327 12.3552C86.293 12.3552 86.4611 12.6937 86.4611 13.2015V15.9095H87.5256L87.4695 15.8531ZM82.0351 13.2015H80.1303C80.1303 12.9194 80.1863 12.6937 80.3544 12.5245C80.5224 12.2988 80.7465 12.186 81.0827 12.186C81.4188 12.186 81.5869 12.2988 81.755 12.4681C81.9231 12.6373 82.0351 12.9194 82.0351 13.2579M83.0436 13.6528C83.0436 13.0887 82.9875 12.5809 82.6514 12.1296C82.2592 11.5654 81.699 11.3397 81.0267 11.3397C80.3544 11.3397 79.9622 11.5654 79.626 11.9039C79.1778 12.3552 79.0098 12.9758 79.0098 13.6528C79.0098 14.3298 79.2339 15.0069 79.6821 15.4018C80.0182 15.7403 80.4664 15.966 81.0827 15.966C81.699 15.966 82.2032 15.7967 82.5393 15.3454C82.7074 15.1197 82.8755 14.7812 82.9315 14.4991H81.9231C81.9231 14.6684 81.811 14.7812 81.699 14.894C81.5309 15.0633 81.3628 15.1197 81.0827 15.1197C80.8026 15.1197 80.5785 15.0069 80.4104 14.8376C80.1863 14.6119 80.0742 14.3298 80.0742 13.9913H83.0436C83.0436 13.8785 83.0436 13.7093 83.0436 13.7093M78.4495 15.8531V12.863C78.4495 11.9603 77.9453 11.3397 77.0489 11.3397C76.1525 11.3397 75.9844 11.6218 75.7043 12.0731C75.4802 11.6218 75.088 11.3397 74.4157 11.3397C73.7434 11.3397 73.4073 11.6218 73.1832 12.0167L73.0711 11.4526H72.1747V15.9095H73.2392V13.4836C73.2392 12.9194 73.5193 12.2988 74.1356 12.2988C74.7519 12.2988 74.8079 12.6373 74.8079 13.1451V15.9095H75.8724V13.4836C75.8724 12.9194 76.1525 12.2988 76.7128 12.2988C77.273 12.2988 77.385 12.6373 77.385 13.1451V15.9095H78.4495V15.8531ZM70.2139 14.1042C70.2139 14.7812 69.7657 15.1197 69.0934 15.1197C68.4211 15.1197 68.4771 14.894 68.4771 14.5555C68.4771 14.217 68.8132 13.9913 69.0934 13.9913L70.2139 13.8785V14.1042ZM71.6145 15.7967V15.0069C71.6145 15.0069 71.5585 15.0069 71.5024 15.0069C71.3344 15.0069 71.2783 14.9504 71.2783 14.7248V13.0887C71.2783 12.8066 71.2783 12.4681 71.1663 12.186C70.8862 11.509 70.2699 11.2833 69.5416 11.2833C68.8132 11.2833 67.7488 11.7346 67.6927 12.7502H68.7012C68.7012 12.3552 69.0373 12.1296 69.4855 12.1296C69.9337 12.1296 70.2139 12.4117 70.2139 12.8066V13.0887L68.9253 13.2015C68.0849 13.2579 67.4126 13.7657 67.4126 14.6119C67.4126 15.4582 67.9729 16.0224 68.9813 16.0224C69.9898 16.0224 70.1018 15.7403 70.3259 15.3454C70.3259 15.6839 70.606 15.966 71.0542 15.966C71.5024 15.966 71.3904 15.966 71.5585 15.8531L71.6145 15.7967ZM67.2446 15.7967V14.894C66.9644 14.894 66.7964 14.894 66.5723 14.894C66.2361 14.894 66.068 14.7248 66.068 14.3863V12.2424H67.1885V11.3397H66.068V9.92928L65.0036 10.2114V11.3397H64.2192V12.2424H65.0036V14.4991C65.0036 15.3454 65.4518 15.8531 66.3482 15.8531C67.2446 15.8531 66.9644 15.8531 67.2446 15.7403M63.827 15.8531V12.9194C63.827 12.0167 63.2668 11.3397 62.3144 11.3397C61.3619 11.3397 61.3059 11.5654 61.0258 12.0167V11.4526H60.0734V15.9095H61.1378V14.1042C61.1378 13.7093 61.1378 13.2579 61.3059 12.9194C61.474 12.5809 61.6981 12.3552 62.0903 12.3552C62.6505 12.3552 62.8186 12.6937 62.8186 13.2015V15.9095H63.8831L63.827 15.8531ZM59.0649 15.8531V11.3961H58.0004V13.7657C58.0004 14.1042 57.9444 14.4991 57.6643 14.7812C57.5523 14.894 57.3842 15.0069 57.1041 15.0069C56.5438 15.0069 56.3197 14.6684 56.3197 14.1606V11.4526H55.2552V14.3863C55.2552 15.3454 55.8155 15.966 56.7679 15.966C57.7203 15.966 57.8324 15.6839 58.0565 15.2889V15.8531H59.0089H59.0649ZM54.4149 16.4737V11.4526H53.3504V16.3045C53.3504 16.5865 53.1823 16.7558 52.8462 16.7558C52.51 16.7558 52.6221 16.7558 52.3419 16.7558V17.6585C52.51 17.6585 52.6781 17.7149 52.8462 17.7713C52.9582 17.7713 53.1263 17.7713 53.2383 17.7713C54.0227 17.7713 54.4709 17.32 54.4709 16.5301M54.4709 9.70361H53.3504V10.7755H54.4709V9.70361ZM50.9973 13.7093H49.3166L50.157 11.1705L50.9973 13.7093ZM52.9022 15.8531L50.7732 9.81645H49.5967L47.4678 15.8531H48.5883L48.9804 14.6684H51.3895L51.7817 15.8531H52.9022Z" fill="white"/>
</g>
<path d="M113.724 20C113.724 9.03955 105.895 0.112994 96.2209 0H164.237C174.011 0 181.889 8.98305 181.889 20C181.889 31.017 173.961 40 164.237 40H96.0713C105.795 40 113.724 31.017 113.724 20Z" fill="white"/>
<path d="M124.168 12.2729V8.10818H127.18V8.59965H124.719V9.87522H127.023V10.3639H124.719V11.7815H127.276V12.2729H124.168ZM130.116 11.1678L130.618 11.2332C130.563 11.5798 130.422 11.8515 130.195 12.0485C129.97 12.2436 129.692 12.3411 129.363 12.3411C128.95 12.3411 128.617 12.2067 128.366 11.9377C128.116 11.6669 127.991 11.2796 127.991 10.7758C127.991 10.45 128.044 10.165 128.152 9.92068C128.26 9.67636 128.424 9.49359 128.644 9.37238C128.866 9.24928 129.106 9.18772 129.366 9.18772C129.693 9.18772 129.961 9.27106 130.169 9.43772C130.378 9.60249 130.511 9.83734 130.57 10.1423L130.073 10.219C130.026 10.0163 129.941 9.86386 129.82 9.76159C129.701 9.65931 129.556 9.60818 129.385 9.60818C129.128 9.60818 128.919 9.70098 128.758 9.88659C128.597 10.0703 128.516 10.362 128.516 10.7616C128.516 11.1669 128.594 11.4614 128.749 11.6451C128.904 11.8288 129.107 11.9207 129.357 11.9207C129.558 11.9207 129.725 11.8591 129.86 11.736C129.994 11.6129 130.08 11.4235 130.116 11.1678ZM131.04 10.7644C131.04 10.2057 131.195 9.79189 131.506 9.52295C131.765 9.29946 132.082 9.18772 132.455 9.18772C132.87 9.18772 133.209 9.32409 133.472 9.59681C133.735 9.86765 133.867 10.2426 133.867 10.7218C133.867 11.1101 133.808 11.4159 133.691 11.6394C133.575 11.861 133.406 12.0334 133.182 12.1565C132.961 12.2796 132.718 12.3411 132.455 12.3411C132.032 12.3411 131.691 12.2057 131.429 11.9349C131.17 11.664 131.04 11.2739 131.04 10.7644ZM131.566 10.7644C131.566 11.1508 131.65 11.4406 131.818 11.6337C131.987 11.825 132.199 11.9207 132.455 11.9207C132.709 11.9207 132.92 11.8241 133.088 11.6309C133.257 11.4377 133.341 11.1432 133.341 10.7474C133.341 10.3743 133.256 10.0921 133.086 9.90079C132.917 9.70761 132.707 9.61102 132.455 9.61102C132.199 9.61102 131.987 9.70666 131.818 9.89795C131.65 10.0892 131.566 10.3781 131.566 10.7644ZM134.644 12.2729V9.2559H135.104V9.68488C135.325 9.35344 135.645 9.18772 136.064 9.18772C136.246 9.18772 136.413 9.22087 136.564 9.28715C136.717 9.35155 136.832 9.43678 136.908 9.54284C136.984 9.6489 137.037 9.77484 137.067 9.92068C137.086 10.0154 137.095 10.1811 137.095 10.4178V12.2729H136.584V10.4377C136.584 10.2294 136.564 10.0741 136.524 9.97181C136.484 9.86765 136.413 9.78526 136.311 9.72465C136.211 9.66215 136.092 9.6309 135.956 9.6309C135.738 9.6309 135.55 9.70003 135.391 9.83829C135.234 9.97655 135.155 10.2389 135.155 10.6252V12.2729H134.644ZM137.866 10.7644C137.866 10.2057 138.022 9.79189 138.332 9.52295C138.592 9.29946 138.908 9.18772 139.281 9.18772C139.696 9.18772 140.035 9.32409 140.298 9.59681C140.561 9.86765 140.693 10.2426 140.693 10.7218C140.693 11.1101 140.634 11.4159 140.517 11.6394C140.401 11.861 140.232 12.0334 140.008 12.1565C139.787 12.2796 139.544 12.3411 139.281 12.3411C138.859 12.3411 138.517 12.2057 138.256 11.9349C137.996 11.664 137.866 11.2739 137.866 10.7644ZM138.392 10.7644C138.392 11.1508 138.476 11.4406 138.645 11.6337C138.813 11.825 139.026 11.9207 139.281 11.9207C139.535 11.9207 139.746 11.8241 139.915 11.6309C140.083 11.4377 140.168 11.1432 140.168 10.7474C140.168 10.3743 140.082 10.0921 139.912 9.90079C139.743 9.70761 139.533 9.61102 139.281 9.61102C139.026 9.61102 138.813 9.70666 138.645 9.89795C138.476 10.0892 138.392 10.3781 138.392 10.7644ZM141.47 12.2729V9.2559H141.927V9.6792C142.022 9.53147 142.148 9.4131 142.305 9.32409C142.462 9.23318 142.641 9.18772 142.842 9.18772C143.066 9.18772 143.248 9.23412 143.39 9.32693C143.534 9.41973 143.636 9.54946 143.694 9.71613C143.933 9.36386 144.244 9.18772 144.626 9.18772C144.925 9.18772 145.156 9.27106 145.317 9.43772C145.478 9.60249 145.558 9.85723 145.558 10.2019V12.2729H145.049V10.3724C145.049 10.1678 145.032 10.0211 144.998 9.93204C144.966 9.84113 144.906 9.76821 144.819 9.71329C144.732 9.65837 144.63 9.6309 144.513 9.6309C144.3 9.6309 144.124 9.70193 143.984 9.84397C143.844 9.98412 143.774 10.2095 143.774 10.5201V12.2729H143.263V10.3127C143.263 10.0854 143.221 9.91499 143.138 9.80136C143.054 9.68772 142.918 9.6309 142.728 9.6309C142.585 9.6309 142.451 9.66878 142.328 9.74454C142.207 9.8203 142.119 9.93109 142.064 10.0769C142.009 10.2228 141.981 10.433 141.981 10.7076V12.2729H141.47ZM146.67 12.2729V9.2559H147.181V12.2729H146.67ZM146.644 8.8809L147.022 8.08545H147.693L147.068 8.8809H146.644ZM150.254 11.9008C150.064 12.0618 149.882 12.1754 149.705 12.2417C149.531 12.308 149.344 12.3411 149.143 12.3411C148.811 12.3411 148.557 12.2606 148.379 12.0997C148.201 11.9368 148.112 11.7294 148.112 11.4775C148.112 11.3298 148.145 11.1953 148.211 11.0741C148.279 10.951 148.367 10.8525 148.475 10.7786C148.585 10.7048 148.708 10.6489 148.845 10.611C148.945 10.5845 149.096 10.5589 149.299 10.5343C149.712 10.4851 150.016 10.4264 150.211 10.3582C150.213 10.2881 150.214 10.2436 150.214 10.2247C150.214 10.0163 150.166 9.86954 150.069 9.78431C149.938 9.66878 149.744 9.61102 149.487 9.61102C149.246 9.61102 149.068 9.65363 148.953 9.73886C148.839 9.82219 148.755 9.97087 148.7 10.1849L148.2 10.1167C148.245 9.90268 148.32 9.73034 148.424 9.59965C148.528 9.46708 148.679 9.36575 148.876 9.29568C149.073 9.22371 149.301 9.18772 149.561 9.18772C149.818 9.18772 150.027 9.21803 150.188 9.27863C150.349 9.33924 150.468 9.41594 150.543 9.50874C150.619 9.59965 150.672 9.71518 150.703 9.85534C150.72 9.94246 150.728 10.0997 150.728 10.3269V11.0087C150.728 11.4841 150.739 11.7853 150.759 11.9122C150.782 12.0372 150.826 12.1574 150.89 12.2729H150.356C150.303 12.1669 150.269 12.0428 150.254 11.9008ZM150.211 10.7587C150.025 10.8345 149.747 10.8989 149.376 10.9519C149.166 10.9822 149.017 11.0163 148.93 11.0542C148.843 11.0921 148.775 11.1479 148.728 11.2218C148.681 11.2938 148.657 11.3743 148.657 11.4633C148.657 11.5997 148.708 11.7133 148.811 11.8042C148.915 11.8951 149.066 11.9406 149.265 11.9406C149.462 11.9406 149.637 11.8979 149.791 11.8127C149.944 11.7256 150.057 11.6072 150.129 11.4576C150.184 11.3421 150.211 11.1716 150.211 10.9462V10.7587ZM127.128 17.8127L127.68 17.9519C127.564 18.4046 127.356 18.7502 127.055 18.9889C126.755 19.2256 126.389 19.344 125.955 19.344C125.506 19.344 125.141 19.2531 124.859 19.0712C124.578 18.8875 124.364 18.6224 124.217 18.2758C124.071 17.9292 123.998 17.557 123.998 17.1593C123.998 16.7256 124.08 16.3478 124.245 16.0258C124.412 15.7019 124.647 15.4567 124.952 15.29C125.259 15.1214 125.596 15.0372 125.964 15.0372C126.38 15.0372 126.731 15.1432 127.015 15.3553C127.299 15.5675 127.497 15.8658 127.609 16.2502L127.066 16.3781C126.969 16.075 126.829 15.8544 126.646 15.7161C126.462 15.5779 126.231 15.5087 125.952 15.5087C125.632 15.5087 125.364 15.5854 125.148 15.7389C124.934 15.8923 124.784 16.0987 124.697 16.3582C124.61 16.6158 124.566 16.8819 124.566 17.1565C124.566 17.5106 124.617 17.8203 124.719 18.0854C124.824 18.3487 124.985 18.5457 125.202 18.6764C125.42 18.807 125.656 18.8724 125.91 18.8724C126.218 18.8724 126.48 18.7834 126.694 18.6053C126.908 18.4273 127.053 18.1631 127.128 17.8127ZM128.28 17.7644C128.28 17.2057 128.436 16.7919 128.746 16.5229C129.006 16.2995 129.322 16.1877 129.695 16.1877C130.11 16.1877 130.449 16.3241 130.712 16.5968C130.975 16.8676 131.107 17.2426 131.107 17.7218C131.107 18.1101 131.048 18.4159 130.931 18.6394C130.815 18.861 130.646 19.0334 130.422 19.1565C130.201 19.2796 129.958 19.3411 129.695 19.3411C129.273 19.3411 128.931 19.2057 128.669 18.9349C128.41 18.664 128.28 18.2739 128.28 17.7644ZM128.806 17.7644C128.806 18.1508 128.89 18.4406 129.059 18.6337C129.227 18.825 129.439 18.9207 129.695 18.9207C129.949 18.9207 130.16 18.8241 130.329 18.6309C130.497 18.4377 130.581 18.1432 130.581 17.7474C130.581 17.3743 130.496 17.0921 130.326 16.9008C130.157 16.7076 129.947 16.611 129.695 16.611C129.439 16.611 129.227 16.7067 129.059 16.8979C128.89 17.0892 128.806 17.3781 128.806 17.7644ZM131.693 17.7644C131.693 17.2057 131.849 16.7919 132.159 16.5229C132.419 16.2995 132.735 16.1877 133.108 16.1877C133.523 16.1877 133.862 16.3241 134.125 16.5968C134.389 16.8676 134.52 17.2426 134.52 17.7218C134.52 18.1101 134.461 18.4159 134.344 18.6394C134.228 18.861 134.059 19.0334 133.836 19.1565C133.614 19.2796 133.371 19.3411 133.108 19.3411C132.686 19.3411 132.344 19.2057 132.083 18.9349C131.823 18.664 131.693 18.2739 131.693 17.7644ZM132.219 17.7644C132.219 18.1508 132.303 18.4406 132.472 18.6337C132.64 18.825 132.853 18.9207 133.108 18.9207C133.362 18.9207 133.573 18.8241 133.742 18.6309C133.91 18.4377 133.995 18.1432 133.995 17.7474C133.995 17.3743 133.909 17.0921 133.739 16.9008C133.57 16.7076 133.36 16.611 133.108 16.611C132.853 16.611 132.64 16.7067 132.472 16.8979C132.303 17.0892 132.219 17.3781 132.219 17.7644ZM135.297 20.4292V16.2559H135.763V16.6479C135.873 16.4945 135.997 16.38 136.135 16.3042C136.273 16.2265 136.441 16.1877 136.638 16.1877C136.895 16.1877 137.123 16.254 137.32 16.3866C137.517 16.5192 137.665 16.7067 137.766 16.9491C137.866 17.1896 137.916 17.4538 137.916 17.7417C137.916 18.0504 137.86 18.3288 137.749 18.5769C137.639 18.8231 137.478 19.0125 137.266 19.1451C137.056 19.2758 136.834 19.3411 136.601 19.3411C136.431 19.3411 136.277 19.3051 136.141 19.2332C136.006 19.1612 135.895 19.0703 135.808 18.9604V20.4292H135.297ZM135.76 17.7815C135.76 18.1697 135.839 18.4567 135.996 18.6423C136.153 18.8279 136.343 18.9207 136.567 18.9207C136.794 18.9207 136.988 18.825 137.149 18.6337C137.312 18.4406 137.394 18.1423 137.394 17.7389C137.394 17.3544 137.314 17.0665 137.155 16.8752C136.998 16.6839 136.809 16.5883 136.59 16.5883C136.372 16.5883 136.179 16.6906 136.01 16.8951C135.843 17.0978 135.76 17.3932 135.76 17.7815ZM140.776 18.3014L141.304 18.3667C141.221 18.6754 141.066 18.915 140.841 19.0854C140.615 19.2559 140.328 19.3411 139.977 19.3411C139.536 19.3411 139.186 19.2057 138.926 18.9349C138.668 18.6622 138.54 18.2805 138.54 17.79C138.54 17.2824 138.67 16.8885 138.932 16.6082C139.193 16.3279 139.532 16.1877 139.949 16.1877C140.352 16.1877 140.682 16.325 140.937 16.5997C141.193 16.8743 141.321 17.2606 141.321 17.7587C141.321 17.789 141.32 17.8345 141.318 17.8951H139.068C139.087 18.2265 139.181 18.4803 139.349 18.6565C139.518 18.8326 139.728 18.9207 139.98 18.9207C140.168 18.9207 140.328 18.8714 140.46 18.7729C140.593 18.6745 140.698 18.5173 140.776 18.3014ZM139.097 17.4747H140.781C140.758 17.2209 140.694 17.0305 140.588 16.9036C140.425 16.7067 140.214 16.6082 139.954 16.6082C139.72 16.6082 139.522 16.6868 139.361 16.844C139.202 17.0012 139.114 17.2114 139.097 17.4747ZM142.118 19.2729V16.2559H142.578V16.7133C142.695 16.4993 142.803 16.3582 142.902 16.29C143.002 16.2218 143.112 16.1877 143.231 16.1877C143.404 16.1877 143.579 16.2426 143.757 16.3525L143.581 16.8269C143.456 16.7531 143.331 16.7161 143.206 16.7161C143.094 16.7161 142.994 16.7502 142.905 16.8184C142.816 16.8847 142.752 16.9775 142.714 17.0968C142.657 17.2786 142.629 17.4775 142.629 17.6934V19.2729H142.118ZM146.204 18.9008C146.015 19.0618 145.832 19.1754 145.656 19.2417C145.482 19.308 145.294 19.3411 145.093 19.3411C144.762 19.3411 144.507 19.2606 144.329 19.0997C144.151 18.9368 144.062 18.7294 144.062 18.4775C144.062 18.3298 144.095 18.1953 144.162 18.0741C144.23 17.951 144.318 17.8525 144.426 17.7786C144.536 17.7048 144.659 17.6489 144.795 17.611C144.895 17.5845 145.047 17.5589 145.25 17.5343C145.662 17.4851 145.966 17.4264 146.162 17.3582C146.163 17.2881 146.164 17.2436 146.164 17.2247C146.164 17.0163 146.116 16.8695 146.019 16.7843C145.889 16.6688 145.695 16.611 145.437 16.611C145.197 16.611 145.019 16.6536 144.903 16.7389C144.789 16.8222 144.705 16.9709 144.65 17.1849L144.15 17.1167C144.196 16.9027 144.27 16.7303 144.375 16.5997C144.479 16.4671 144.629 16.3658 144.826 16.2957C145.023 16.2237 145.251 16.1877 145.511 16.1877C145.769 16.1877 145.978 16.218 146.139 16.2786C146.3 16.3392 146.418 16.4159 146.494 16.5087C146.57 16.5997 146.623 16.7152 146.653 16.8553C146.67 16.9425 146.679 17.0997 146.679 17.3269V18.0087C146.679 18.4841 146.689 18.7853 146.71 18.9122C146.733 19.0372 146.776 19.1574 146.841 19.2729H146.306C146.253 19.1669 146.219 19.0428 146.204 18.9008ZM146.162 17.7587C145.976 17.8345 145.698 17.8989 145.326 17.9519C145.116 17.9822 144.967 18.0163 144.88 18.0542C144.793 18.0921 144.726 18.1479 144.679 18.2218C144.631 18.2938 144.608 18.3743 144.608 18.4633C144.608 18.5997 144.659 18.7133 144.761 18.8042C144.865 18.8951 145.017 18.9406 145.216 18.9406C145.412 18.9406 145.588 18.8979 145.741 18.8127C145.894 18.7256 146.007 18.6072 146.079 18.4576C146.134 18.3421 146.162 18.1716 146.162 17.9462V17.7587ZM148.765 18.8156L148.839 19.2673C148.695 19.2976 148.566 19.3127 148.453 19.3127C148.267 19.3127 148.123 19.2834 148.021 19.2247C147.918 19.1659 147.846 19.0892 147.805 18.9945C147.763 18.8979 147.742 18.6962 147.742 18.3894V16.6536H147.367V16.2559H147.742V15.5087L148.251 15.2019V16.2559H148.765V16.6536H148.251V18.4178C148.251 18.5637 148.259 18.6574 148.276 18.6991C148.295 18.7408 148.325 18.7739 148.364 18.7985C148.406 18.8231 148.465 18.8354 148.541 18.8354C148.597 18.8354 148.672 18.8288 148.765 18.8156ZM149.445 15.6962V15.1082H149.957V15.6962H149.445ZM149.445 19.2729V16.2559H149.957V19.2729H149.445ZM151.751 19.2729L150.603 16.2559H151.143L151.79 18.0627C151.86 18.2578 151.925 18.4604 151.983 18.6707C152.029 18.5116 152.092 18.3203 152.174 18.0968L152.844 16.2559H153.37L152.228 19.2729H151.751ZM155.965 18.9008C155.775 19.0618 155.593 19.1754 155.417 19.2417C155.242 19.308 155.055 19.3411 154.854 19.3411C154.523 19.3411 154.268 19.2606 154.09 19.0997C153.912 18.9368 153.823 18.7294 153.823 18.4775C153.823 18.3298 153.856 18.1953 153.922 18.0741C153.99 17.951 154.078 17.8525 154.186 17.7786C154.296 17.7048 154.419 17.6489 154.556 17.611C154.656 17.5845 154.808 17.5589 155.01 17.5343C155.423 17.4851 155.727 17.4264 155.922 17.3582C155.924 17.2881 155.925 17.2436 155.925 17.2247C155.925 17.0163 155.877 16.8695 155.78 16.7843C155.649 16.6688 155.455 16.611 155.198 16.611C154.957 16.611 154.779 16.6536 154.664 16.7389C154.55 16.8222 154.466 16.9709 154.411 17.1849L153.911 17.1167C153.956 16.9027 154.031 16.7303 154.135 16.5997C154.239 16.4671 154.39 16.3658 154.587 16.2957C154.784 16.2237 155.012 16.1877 155.272 16.1877C155.529 16.1877 155.738 16.218 155.899 16.2786C156.06 16.3392 156.179 16.4159 156.255 16.5087C156.33 16.5997 156.383 16.7152 156.414 16.8553C156.431 16.9425 156.439 17.0997 156.439 17.3269V18.0087C156.439 18.4841 156.45 18.7853 156.471 18.9122C156.493 19.0372 156.537 19.1574 156.601 19.2729H156.067C156.014 19.1669 155.98 19.0428 155.965 18.9008ZM155.922 17.7587C155.737 17.8345 155.458 17.8989 155.087 17.9519C154.877 17.9822 154.728 18.0163 154.641 18.0542C154.554 18.0921 154.487 18.1479 154.439 18.2218C154.392 18.2938 154.368 18.3743 154.368 18.4633C154.368 18.5997 154.419 18.7133 154.522 18.8042C154.626 18.8951 154.777 18.9406 154.976 18.9406C155.173 18.9406 155.348 18.8979 155.502 18.8127C155.655 18.7256 155.768 18.6072 155.84 18.4576C155.895 18.3421 155.922 18.1716 155.922 17.9462V17.7587ZM157.543 19.2729V18.6906H158.125V19.2729C158.125 19.487 158.087 19.6593 158.012 19.79C157.936 19.9226 157.816 20.0248 157.651 20.0968L157.509 19.8781C157.617 19.8307 157.696 19.7606 157.747 19.6678C157.798 19.5769 157.827 19.4453 157.833 19.2729H157.543ZM123.969 23.9349L124.489 23.8894C124.514 24.0978 124.571 24.2692 124.66 24.4036C124.751 24.5362 124.891 24.6442 125.08 24.7275C125.27 24.8089 125.483 24.8497 125.719 24.8497C125.93 24.8497 126.115 24.8184 126.276 24.7559C126.437 24.6934 126.556 24.6082 126.634 24.5002C126.714 24.3904 126.753 24.2711 126.753 24.1423C126.753 24.0116 126.716 23.8979 126.64 23.8014C126.564 23.7029 126.439 23.6205 126.265 23.5542C126.153 23.5106 125.906 23.4434 125.523 23.3525C125.141 23.2597 124.873 23.1726 124.719 23.0911C124.521 22.987 124.372 22.8582 124.273 22.7048C124.177 22.5495 124.128 22.3762 124.128 22.1849C124.128 21.9747 124.188 21.7786 124.307 21.5968C124.427 21.4131 124.601 21.2739 124.83 21.1792C125.059 21.0845 125.314 21.0372 125.594 21.0372C125.903 21.0372 126.175 21.0873 126.41 21.1877C126.646 21.2862 126.828 21.432 126.955 21.6252C127.082 21.8184 127.15 22.0372 127.16 22.2815L126.631 22.3212C126.603 22.058 126.506 21.8591 126.342 21.7247C126.179 21.5902 125.937 21.5229 125.617 21.5229C125.284 21.5229 125.04 21.5845 124.887 21.7076C124.735 21.8288 124.66 21.9756 124.66 22.1479C124.66 22.2976 124.714 22.4207 124.822 22.5173C124.928 22.6139 125.204 22.7133 125.651 22.8156C126.1 22.9159 126.408 23.004 126.574 23.0798C126.817 23.1915 126.996 23.3336 127.111 23.5059C127.227 23.6764 127.285 23.8733 127.285 24.0968C127.285 24.3184 127.221 24.5277 127.094 24.7247C126.967 24.9197 126.785 25.0722 126.546 25.182C126.309 25.29 126.042 25.344 125.745 25.344C125.368 25.344 125.052 25.289 124.796 25.1792C124.542 25.0694 124.342 24.9046 124.197 24.6849C124.053 24.4633 123.977 24.2133 123.969 23.9349ZM127.956 23.7644C127.956 23.2057 128.112 22.7919 128.422 22.5229C128.682 22.2995 128.998 22.1877 129.371 22.1877C129.786 22.1877 130.125 22.3241 130.388 22.5968C130.651 22.8676 130.783 23.2426 130.783 23.7218C130.783 24.1101 130.724 24.4159 130.607 24.6394C130.491 24.861 130.322 25.0334 130.098 25.1565C129.877 25.2796 129.634 25.3411 129.371 25.3411C128.949 25.3411 128.607 25.2057 128.346 24.9349C128.086 24.664 127.956 24.2739 127.956 23.7644ZM128.482 23.7644C128.482 24.1508 128.566 24.4406 128.735 24.6337C128.903 24.825 129.116 24.9207 129.371 24.9207C129.625 24.9207 129.836 24.8241 130.005 24.6309C130.173 24.4377 130.258 24.1432 130.258 23.7474C130.258 23.3743 130.172 23.0921 130.002 22.9008C129.833 22.7076 129.623 22.611 129.371 22.611C129.116 22.611 128.903 22.7067 128.735 22.8979C128.566 23.0892 128.482 23.3781 128.482 23.7644ZM133.529 24.1678L134.032 24.2332C133.977 24.5798 133.836 24.8515 133.608 25.0485C133.383 25.2436 133.105 25.3411 132.776 25.3411C132.363 25.3411 132.031 25.2067 131.779 24.9377C131.529 24.6669 131.404 24.2796 131.404 23.7758C131.404 23.45 131.458 23.165 131.566 22.9207C131.674 22.6764 131.837 22.4936 132.057 22.3724C132.279 22.2493 132.519 22.1877 132.779 22.1877C133.106 22.1877 133.374 22.2711 133.583 22.4377C133.791 22.6025 133.925 22.8373 133.983 23.1423L133.486 23.219C133.439 23.0163 133.354 22.8639 133.233 22.7616C133.114 22.6593 132.969 22.6082 132.799 22.6082C132.541 22.6082 132.332 22.701 132.171 22.8866C132.01 23.0703 131.929 23.362 131.929 23.7616C131.929 24.1669 132.007 24.4614 132.162 24.6451C132.318 24.8288 132.52 24.9207 132.77 24.9207C132.971 24.9207 133.139 24.8591 133.273 24.736C133.407 24.6129 133.493 24.4235 133.529 24.1678ZM134.646 21.6962V21.1082H135.158V21.6962H134.646ZM134.646 25.2729V22.2559H135.158V25.2729H134.646ZM138.082 24.9008C137.893 25.0618 137.71 25.1754 137.534 25.2417C137.36 25.308 137.172 25.3411 136.972 25.3411C136.64 25.3411 136.385 25.2606 136.207 25.0997C136.029 24.9368 135.94 24.7294 135.94 24.4775C135.94 24.3298 135.973 24.1953 136.04 24.0741C136.108 23.951 136.196 23.8525 136.304 23.7786C136.414 23.7048 136.537 23.6489 136.673 23.611C136.774 23.5845 136.925 23.5589 137.128 23.5343C137.541 23.4851 137.845 23.4264 138.04 23.3582C138.042 23.2881 138.043 23.2436 138.043 23.2247C138.043 23.0163 137.994 22.8695 137.898 22.7843C137.767 22.6688 137.573 22.611 137.315 22.611C137.075 22.611 136.897 22.6536 136.781 22.7389C136.668 22.8222 136.583 22.9709 136.528 23.1849L136.028 23.1167C136.074 22.9027 136.149 22.7303 136.253 22.5997C136.357 22.4671 136.508 22.3658 136.704 22.2957C136.901 22.2237 137.13 22.1877 137.389 22.1877C137.647 22.1877 137.856 22.218 138.017 22.2786C138.178 22.3392 138.296 22.4159 138.372 22.5087C138.448 22.5997 138.501 22.7152 138.531 22.8553C138.548 22.9425 138.557 23.0997 138.557 23.3269V24.0087C138.557 24.4841 138.567 24.7853 138.588 24.9122C138.611 25.0372 138.654 25.1574 138.719 25.2729H138.185C138.132 25.1669 138.097 25.0428 138.082 24.9008ZM138.04 23.7587C137.854 23.8345 137.576 23.8989 137.204 23.9519C136.994 23.9822 136.846 24.0163 136.758 24.0542C136.671 24.0921 136.604 24.1479 136.557 24.2218C136.509 24.2938 136.486 24.3743 136.486 24.4633C136.486 24.5997 136.537 24.7133 136.639 24.8042C136.743 24.8951 136.895 24.9406 137.094 24.9406C137.291 24.9406 137.466 24.8979 137.619 24.8127C137.773 24.7256 137.885 24.6072 137.957 24.4576C138.012 24.3421 138.04 24.1716 138.04 23.9462V23.7587ZM139.515 25.2729V21.1082H140.027V25.2729H139.515ZM142.793 21.6962V21.1082H143.305V21.6962H142.793ZM142.793 25.2729V22.2559H143.305V25.2729H142.793ZM145.932 23.9349L146.452 23.8894C146.477 24.0978 146.534 24.2692 146.623 24.4036C146.714 24.5362 146.854 24.6442 147.043 24.7275C147.233 24.8089 147.446 24.8497 147.682 24.8497C147.893 24.8497 148.078 24.8184 148.239 24.7559C148.4 24.6934 148.519 24.6082 148.597 24.5002C148.677 24.3904 148.716 24.2711 148.716 24.1423C148.716 24.0116 148.679 23.8979 148.603 23.8014C148.527 23.7029 148.402 23.6205 148.228 23.5542C148.116 23.5106 147.869 23.4434 147.486 23.3525C147.104 23.2597 146.836 23.1726 146.682 23.0911C146.483 22.987 146.335 22.8582 146.236 22.7048C146.14 22.5495 146.091 22.3762 146.091 22.1849C146.091 21.9747 146.151 21.7786 146.27 21.5968C146.39 21.4131 146.564 21.2739 146.793 21.1792C147.022 21.0845 147.277 21.0372 147.557 21.0372C147.866 21.0372 148.138 21.0873 148.373 21.1877C148.609 21.2862 148.791 21.432 148.918 21.6252C149.045 21.8184 149.113 22.0372 149.123 22.2815L148.594 22.3212C148.566 22.058 148.469 21.8591 148.304 21.7247C148.142 21.5902 147.9 21.5229 147.58 21.5229C147.247 21.5229 147.003 21.5845 146.85 21.7076C146.698 21.8288 146.623 21.9756 146.623 22.1479C146.623 22.2976 146.677 22.4207 146.785 22.5173C146.891 22.6139 147.167 22.7133 147.614 22.8156C148.063 22.9159 148.371 23.004 148.537 23.0798C148.78 23.1915 148.959 23.3336 149.074 23.5059C149.19 23.6764 149.248 23.8733 149.248 24.0968C149.248 24.3184 149.184 24.5277 149.057 24.7247C148.93 24.9197 148.748 25.0722 148.509 25.182C148.272 25.29 148.005 25.344 147.708 25.344C147.331 25.344 147.015 25.289 146.759 25.1792C146.505 25.0694 146.305 24.9046 146.16 24.6849C146.016 24.4633 145.94 24.2133 145.932 23.9349ZM149.919 23.7644C149.919 23.2057 150.075 22.7919 150.385 22.5229C150.645 22.2995 150.961 22.1877 151.334 22.1877C151.749 22.1877 152.088 22.3241 152.351 22.5968C152.614 22.8676 152.746 23.2426 152.746 23.7218C152.746 24.1101 152.687 24.4159 152.57 24.6394C152.454 24.861 152.285 25.0334 152.061 25.1565C151.84 25.2796 151.597 25.3411 151.334 25.3411C150.912 25.3411 150.57 25.2057 150.309 24.9349C150.049 24.664 149.919 24.2739 149.919 23.7644ZM150.445 23.7644C150.445 24.1508 150.529 24.4406 150.698 24.6337C150.866 24.825 151.078 24.9207 151.334 24.9207C151.588 24.9207 151.799 24.8241 151.968 24.6309C152.136 24.4377 152.221 24.1432 152.221 23.7474C152.221 23.3743 152.135 23.0921 151.965 22.9008C151.796 22.7076 151.586 22.611 151.334 22.611C151.078 22.611 150.866 22.7067 150.698 22.8979C150.529 23.0892 150.445 23.3781 150.445 23.7644ZM153.512 25.2729V21.1082H154.023V25.2729H153.512ZM154.996 21.6962V21.1082H155.507V21.6962H154.996ZM154.996 25.2729V22.2559H155.507V25.2729H154.996ZM158.42 25.2729V24.8923C158.229 25.1915 157.948 25.3411 157.577 25.3411C157.336 25.3411 157.114 25.2748 156.912 25.1423C156.711 25.0097 156.555 24.825 156.443 24.5883C156.333 24.3497 156.278 24.076 156.278 23.7673C156.278 23.4661 156.328 23.1934 156.429 22.9491C156.529 22.7029 156.68 22.5144 156.881 22.3837C157.081 22.2531 157.306 22.1877 157.554 22.1877C157.736 22.1877 157.898 22.2265 158.04 22.3042C158.182 22.38 158.297 22.4794 158.386 22.6025V21.1082H158.895V25.2729H158.42ZM156.804 23.7673C156.804 24.1536 156.885 24.4425 157.048 24.6337C157.211 24.825 157.403 24.9207 157.625 24.9207C157.848 24.9207 158.038 24.8298 158.193 24.6479C158.35 24.4642 158.429 24.1849 158.429 23.8099C158.429 23.397 158.349 23.094 158.19 22.9008C158.031 22.7076 157.835 22.611 157.602 22.611C157.375 22.611 157.184 22.7038 157.031 22.8894C156.88 23.075 156.804 23.3676 156.804 23.7673ZM161.845 24.9008C161.655 25.0618 161.473 25.1754 161.297 25.2417C161.122 25.308 160.935 25.3411 160.734 25.3411C160.403 25.3411 160.148 25.2606 159.97 25.0997C159.792 24.9368 159.703 24.7294 159.703 24.4775C159.703 24.3298 159.736 24.1953 159.802 24.0741C159.87 23.951 159.958 23.8525 160.066 23.7786C160.176 23.7048 160.299 23.6489 160.436 23.611C160.536 23.5845 160.688 23.5589 160.89 23.5343C161.303 23.4851 161.607 23.4264 161.802 23.3582C161.804 23.2881 161.805 23.2436 161.805 23.2247C161.805 23.0163 161.757 22.8695 161.66 22.7843C161.529 22.6688 161.335 22.611 161.078 22.611C160.837 22.611 160.659 22.6536 160.544 22.7389C160.43 22.8222 160.346 22.9709 160.291 23.1849L159.791 23.1167C159.836 22.9027 159.911 22.7303 160.015 22.5997C160.119 22.4671 160.27 22.3658 160.467 22.2957C160.664 22.2237 160.892 22.1877 161.152 22.1877C161.409 22.1877 161.618 22.218 161.779 22.2786C161.94 22.3392 162.059 22.4159 162.135 22.5087C162.21 22.5997 162.263 22.7152 162.294 22.8553C162.311 22.9425 162.319 23.0997 162.319 23.3269V24.0087C162.319 24.4841 162.33 24.7853 162.351 24.9122C162.373 25.0372 162.417 25.1574 162.481 25.2729H161.947C161.894 25.1669 161.86 25.0428 161.845 24.9008ZM161.802 23.7587C161.617 23.8345 161.338 23.8989 160.967 23.9519C160.757 23.9822 160.608 24.0163 160.521 24.0542C160.434 24.0921 160.367 24.1479 160.319 24.2218C160.272 24.2938 160.248 24.3743 160.248 24.4633C160.248 24.5997 160.299 24.7133 160.402 24.8042C160.506 24.8951 160.657 24.9406 160.856 24.9406C161.053 24.9406 161.228 24.8979 161.382 24.8127C161.535 24.7256 161.648 24.6072 161.72 24.4576C161.775 24.3421 161.802 24.1716 161.802 23.9462V23.7587ZM161.524 21.8809H161.112L160.456 21.0854H161.14L161.524 21.8809ZM163.284 25.2729V22.2559H163.744V22.7133C163.861 22.4993 163.969 22.3582 164.068 22.29C164.168 22.2218 164.278 22.1877 164.397 22.1877C164.57 22.1877 164.745 22.2426 164.923 22.3525L164.747 22.8269C164.622 22.7531 164.497 22.7161 164.372 22.7161C164.26 22.7161 164.16 22.7502 164.071 22.8184C163.981 22.8847 163.918 22.9775 163.88 23.0968C163.823 23.2786 163.795 23.4775 163.795 23.6934V25.2729H163.284ZM165.404 21.6962V21.1082H165.916V21.6962H165.404ZM165.404 25.2729V22.2559H165.916V25.2729H165.404ZM168.84 24.9008C168.651 25.0618 168.468 25.1754 168.292 25.2417C168.118 25.308 167.93 25.3411 167.729 25.3411C167.398 25.3411 167.143 25.2606 166.965 25.0997C166.787 24.9368 166.698 24.7294 166.698 24.4775C166.698 24.3298 166.731 24.1953 166.797 24.0741C166.866 23.951 166.954 23.8525 167.062 23.7786C167.171 23.7048 167.295 23.6489 167.431 23.611C167.531 23.5845 167.683 23.5589 167.886 23.5343C168.298 23.4851 168.602 23.4264 168.797 23.3582C168.799 23.2881 168.8 23.2436 168.8 23.2247C168.8 23.0163 168.752 22.8695 168.655 22.7843C168.525 22.6688 168.331 22.611 168.073 22.611C167.832 22.611 167.654 22.6536 167.539 22.7389C167.425 22.8222 167.341 22.9709 167.286 23.1849L166.786 23.1167C166.832 22.9027 166.906 22.7303 167.011 22.5997C167.115 22.4671 167.265 22.3658 167.462 22.2957C167.659 22.2237 167.887 22.1877 168.147 22.1877C168.404 22.1877 168.614 22.218 168.775 22.2786C168.936 22.3392 169.054 22.4159 169.13 22.5087C169.206 22.5997 169.259 22.7152 169.289 22.8553C169.306 22.9425 169.314 23.0997 169.314 23.3269V24.0087C169.314 24.4841 169.325 24.7853 169.346 24.9122C169.368 25.0372 169.412 25.1574 169.476 25.2729H168.942C168.889 25.1669 168.855 25.0428 168.84 24.9008ZM168.797 23.7587C168.612 23.8345 168.333 23.8989 167.962 23.9519C167.752 23.9822 167.603 24.0163 167.516 24.0542C167.429 24.0921 167.362 24.1479 167.314 24.2218C167.267 24.2938 167.243 24.3743 167.243 24.4633C167.243 24.5997 167.295 24.7133 167.397 24.8042C167.501 24.8951 167.653 24.9406 167.851 24.9406C168.048 24.9406 168.224 24.8979 168.377 24.8127C168.53 24.7256 168.643 24.6072 168.715 24.4576C168.77 24.3421 168.797 24.1716 168.797 23.9462V23.7587ZM124.094 28.6962V28.1082H124.606V28.6962H124.094ZM124.094 32.2729V29.2559H124.606V32.2729H124.094ZM130.392 30.8127L130.943 30.9519C130.828 31.4046 130.62 31.7502 130.318 31.9889C130.019 32.2256 129.653 32.344 129.219 32.344C128.77 32.344 128.405 32.2531 128.122 32.0712C127.842 31.8875 127.628 31.6224 127.48 31.2758C127.335 30.9292 127.262 30.557 127.262 30.1593C127.262 29.7256 127.344 29.3478 127.509 29.0258C127.675 28.7019 127.911 28.4567 128.216 28.29C128.523 28.1214 128.86 28.0372 129.228 28.0372C129.644 28.0372 129.995 28.1432 130.279 28.3553C130.563 28.5675 130.761 28.8658 130.872 29.2502L130.33 29.3781C130.233 29.075 130.093 28.8544 129.909 28.7161C129.726 28.5779 129.495 28.5087 129.216 28.5087C128.896 28.5087 128.628 28.5854 128.412 28.7389C128.198 28.8923 128.048 29.0987 127.961 29.3582C127.873 29.6158 127.83 29.8819 127.83 30.1565C127.83 30.5106 127.881 30.8203 127.983 31.0854C128.087 31.3487 128.248 31.5457 128.466 31.6764C128.684 31.807 128.92 31.8724 129.174 31.8724C129.482 31.8724 129.744 31.7834 129.958 31.6053C130.172 31.4273 130.317 31.1631 130.392 30.8127ZM131.544 30.7644C131.544 30.2057 131.699 29.7919 132.01 29.5229C132.27 29.2995 132.586 29.1877 132.959 29.1877C133.374 29.1877 133.713 29.3241 133.976 29.5968C134.239 29.8676 134.371 30.2426 134.371 30.7218C134.371 31.1101 134.312 31.4159 134.195 31.6394C134.079 31.861 133.91 32.0334 133.686 32.1565C133.465 32.2796 133.222 32.3411 132.959 32.3411C132.537 32.3411 132.195 32.2057 131.933 31.9349C131.674 31.664 131.544 31.2739 131.544 30.7644ZM132.07 30.7644C132.07 31.1508 132.154 31.4406 132.323 31.6337C132.491 31.825 132.703 31.9207 132.959 31.9207C133.213 31.9207 133.424 31.8241 133.592 31.6309C133.761 31.4377 133.845 31.1432 133.845 30.7474C133.845 30.3743 133.76 30.0921 133.59 29.9008C133.421 29.7076 133.211 29.611 132.959 29.611C132.703 29.611 132.491 29.7067 132.323 29.8979C132.154 30.0892 132.07 30.3781 132.07 30.7644ZM135.148 32.2729V29.2559H135.608V29.6849C135.829 29.3534 136.15 29.1877 136.568 29.1877C136.75 29.1877 136.917 29.2209 137.068 29.2872C137.222 29.3515 137.336 29.4368 137.412 29.5428C137.488 29.6489 137.541 29.7748 137.571 29.9207C137.59 30.0154 137.599 30.1811 137.599 30.4178V32.2729H137.088V30.4377C137.088 30.2294 137.068 30.0741 137.028 29.9718C136.989 29.8676 136.918 29.7853 136.815 29.7247C136.715 29.6622 136.597 29.6309 136.46 29.6309C136.242 29.6309 136.054 29.7 135.895 29.8383C135.738 29.9765 135.659 30.2389 135.659 30.6252V32.2729H135.148ZM138.356 31.3724L138.862 31.2928C138.89 31.4955 138.969 31.6508 139.098 31.7587C139.228 31.8667 139.41 31.9207 139.643 31.9207C139.878 31.9207 140.052 31.8733 140.166 31.7786C140.28 31.682 140.336 31.5694 140.336 31.4406C140.336 31.325 140.286 31.2341 140.186 31.1678C140.116 31.1224 139.942 31.0646 139.663 30.9945C139.288 30.8998 139.028 30.8184 138.882 30.7502C138.738 30.6801 138.628 30.5845 138.552 30.4633C138.478 30.3402 138.442 30.2048 138.442 30.057C138.442 29.9226 138.472 29.7985 138.532 29.6849C138.595 29.5694 138.679 29.4737 138.785 29.3979C138.865 29.3392 138.973 29.29 139.109 29.2502C139.247 29.2086 139.395 29.1877 139.552 29.1877C139.789 29.1877 139.996 29.2218 140.174 29.29C140.354 29.3582 140.487 29.451 140.572 29.5684C140.657 29.6839 140.716 29.8392 140.748 30.0343L140.248 30.1025C140.226 29.9472 140.159 29.826 140.049 29.7389C139.942 29.6517 139.788 29.6082 139.589 29.6082C139.354 29.6082 139.187 29.647 139.086 29.7247C138.986 29.8023 138.936 29.8932 138.936 29.9974C138.936 30.0637 138.957 30.1233 138.998 30.1764C139.04 30.2313 139.105 30.2767 139.194 30.3127C139.246 30.3317 139.396 30.3752 139.646 30.4434C140.008 30.54 140.26 30.6195 140.402 30.682C140.546 30.7426 140.658 30.8317 140.74 30.9491C140.821 31.0665 140.862 31.2123 140.862 31.3866C140.862 31.557 140.812 31.718 140.711 31.8695C140.613 32.0192 140.47 32.1356 140.282 32.219C140.095 32.3004 139.883 32.3411 139.646 32.3411C139.254 32.3411 138.955 32.2597 138.748 32.0968C138.544 31.9339 138.413 31.6925 138.356 31.3724ZM143.622 32.2729V31.8298C143.387 32.1707 143.068 32.3411 142.664 32.3411C142.486 32.3411 142.32 32.307 142.164 32.2389C142.011 32.1707 141.896 32.0854 141.821 31.9832C141.747 31.879 141.695 31.7521 141.664 31.6025C141.644 31.5021 141.633 31.343 141.633 31.1252V29.2559H142.144V30.9292C142.144 31.1962 142.155 31.3762 142.176 31.469C142.208 31.6034 142.276 31.7095 142.38 31.7872C142.484 31.8629 142.613 31.9008 142.767 31.9008C142.92 31.9008 143.064 31.862 143.198 31.7843C143.333 31.7048 143.428 31.5978 143.483 31.4633C143.539 31.3269 143.568 31.13 143.568 30.8724V29.2559H144.079V32.2729H143.622ZM145.058 32.2729V29.2559H145.515V29.6792C145.61 29.5315 145.736 29.4131 145.893 29.3241C146.05 29.2332 146.229 29.1877 146.43 29.1877C146.653 29.1877 146.836 29.2341 146.978 29.3269C147.122 29.4197 147.223 29.5495 147.282 29.7161C147.521 29.3639 147.831 29.1877 148.214 29.1877C148.513 29.1877 148.743 29.2711 148.904 29.4377C149.065 29.6025 149.146 29.8572 149.146 30.2019V32.2729H148.637V30.3724C148.637 30.1678 148.62 30.0211 148.586 29.932C148.554 29.8411 148.494 29.7682 148.407 29.7133C148.32 29.6584 148.218 29.6309 148.1 29.6309C147.888 29.6309 147.712 29.7019 147.572 29.844C147.432 29.9841 147.362 30.2095 147.362 30.5201V32.2729H146.85V30.3127C146.85 30.0854 146.809 29.915 146.725 29.8014C146.642 29.6877 146.506 29.6309 146.316 29.6309C146.172 29.6309 146.039 29.6688 145.916 29.7445C145.794 29.8203 145.706 29.9311 145.651 30.0769C145.596 30.2228 145.569 30.433 145.569 30.7076V32.2729H145.058Z" fill="black"/>
<defs>
<clipPath id="clip0_480_64415">
<rect width="116.364" height="40" fill="white" transform="translate(0.0712891)"/>
</clipPath>
</defs>
</svg>
