<svg width="119" height="40" viewBox="0 0 119 40" fill="none" xmlns="http://www.w3.org/2000/svg">
<g clip-path="url(#clip0_480_64430)">
<path d="M40.8898 19.9718C40.8898 9.0268 32.0322 0.112835 21.0872 0H98.0407C109.098 0 118.012 8.97038 118.012 19.9718C118.012 30.9732 109.042 39.9436 98.0407 39.9436H20.918C31.9194 39.9436 40.8898 30.9732 40.8898 19.9718Z" fill="black"/>
<path d="M20.8614 0C20.9179 0 21.0307 0 21.0871 0C32.0321 0.112835 40.8332 9.0268 40.8332 19.9718C40.8332 30.9168 31.9193 39.9436 20.8614 39.9436C9.86003 40 0.889648 31.0296 0.889648 19.9718C0.889648 8.91396 9.86003 0 20.8614 0Z" fill="#C60C30"/>
<path d="M20.7484 32.44L31.242 21.9463L20.7484 11.4527L10.2547 21.9463L20.7484 32.44ZM31.4113 22.0027C31.4113 22.0027 30.2265 24.0902 26.6158 27.7009C22.9487 31.368 20.7484 32.6092 20.7484 32.6092C20.7484 32.6092 18.6609 31.4244 15.0502 27.8137C11.3831 24.1466 10.1419 22.0027 10.1419 22.0027C10.1419 22.0027 11.3266 19.9153 14.9374 16.3046C18.6045 12.6374 20.7484 11.3962 20.7484 11.3962C20.7484 11.3962 22.8358 12.581 26.503 16.1917C30.1701 19.8589 31.4113 22.0027 31.4113 22.0027ZM20.7484 32.44L31.242 21.9463L20.7484 11.4527L10.2547 21.9463L20.7484 32.44ZM31.4113 22.0027C31.4113 22.0027 30.2265 24.0902 26.6158 27.7009C22.9487 31.368 20.7484 32.6092 20.7484 32.6092C20.7484 32.6092 18.6609 31.4244 15.0502 27.8137C11.3831 24.1466 10.1419 22.0027 10.1419 22.0027C10.1419 22.0027 11.3266 19.9153 14.9374 16.3046C18.6045 12.6374 20.7484 11.3962 20.7484 11.3962C20.7484 11.3962 22.8358 12.581 26.503 16.1917C30.1701 19.8589 31.4113 22.0027 31.4113 22.0027ZM30.3958 21.8335H29.4367V20.8744L30.3958 21.8335ZM28.3647 19.8024V21.8335H27.2928V18.7305L28.3647 19.8024ZM26.2209 17.6586V21.8335H25.1489V16.6431L26.2209 17.715V17.6586ZM24.1334 15.5711V21.8335H23.0615V14.4992L24.1334 15.5711ZM21.9896 13.4273V21.8335H20.9176V12.3553L21.9896 13.4273ZM11.1574 22.1156H12.1165V23.0747L11.1574 22.1156ZM13.1884 24.1466V22.1156H14.2604V25.2185L13.1884 24.1466ZM15.3323 26.2905V22.1156H16.4042V27.306L15.3323 26.234V26.2905ZM17.4197 28.4343V22.172H18.4917V29.5063L17.4197 28.4343ZM19.5636 30.5218V22.1156H20.6355V31.5937L19.5636 30.5218ZM20.9176 22.1156H23.0615V24.7672H20.9176V22.1156ZM23.0615 29.4498L20.9176 31.5937V25.8391H23.0615V29.4498ZM18.4917 14.4992L20.6355 12.3553V18.1099H18.4917V14.4992ZM20.6355 21.8335H18.4917V19.1819H20.6355V21.8335ZM31.919 22.0027C31.919 21.7771 32.0883 21.5514 32.3704 21.5514C32.6525 21.5514 32.8217 21.7206 32.8217 22.0027C32.8217 22.2848 32.596 22.4541 32.3704 22.4541C32.1447 22.4541 31.919 22.2284 31.919 22.0027ZM8.73145 22.0027C8.73145 21.7771 8.95712 21.5514 9.18279 21.5514C9.40846 21.5514 9.63413 21.7206 9.63413 22.0027C9.63413 22.2848 9.46487 22.4541 9.18279 22.4541C8.9007 22.4541 8.73145 22.2284 8.73145 22.0027ZM20.3534 33.5683C20.3534 33.3426 20.5227 33.117 20.8048 33.117C21.0869 33.117 21.2561 33.2862 21.2561 33.5683C21.2561 33.8504 21.0869 34.0197 20.8048 34.0197C20.5227 34.0197 20.3534 33.8504 20.3534 33.5683ZM18.0967 6.71359C17.9839 6.71359 17.8147 6.65717 17.7018 6.65717C17.0812 6.65717 16.6299 6.99568 16.6299 7.44702C16.6299 7.89836 16.7427 7.84194 16.912 8.01119L16.4606 8.46253C16.1786 8.18045 16.0093 7.84194 16.0093 7.44702C16.0093 6.65717 16.7991 5.98016 17.7582 5.98016C18.7173 5.98016 18.266 5.98016 18.4353 6.093C18.7738 5.75449 19.2815 5.47241 19.8457 5.47241C20.4099 5.47241 20.5227 5.58524 20.8048 5.69808C21.0869 5.52882 21.4254 5.47241 21.7639 5.47241C22.3281 5.47241 22.8358 5.69808 23.1743 6.093C23.4 6.03658 23.6257 5.98016 23.9077 5.98016C24.8668 5.98016 25.6567 6.65717 25.6567 7.44702C25.6567 8.23686 25.4874 8.18045 25.2054 8.46253L24.754 8.01119C24.9233 7.84194 25.0361 7.67269 25.0361 7.44702C25.0361 6.99568 24.5283 6.65717 23.9642 6.65717C23.4 6.65717 23.6821 6.65717 23.5692 6.71359C23.5692 6.82643 23.5692 6.88284 23.5692 6.99568C23.5692 7.27777 23.4564 7.55985 23.2872 7.78552L22.8358 7.27777C22.8922 7.16493 22.8922 7.0521 22.8922 6.93926C22.8922 6.48792 22.4409 6.14942 21.8203 6.14942C21.1997 6.14942 21.369 6.14942 21.1997 6.31867V7.27777H20.5227V6.31867C20.3534 6.20583 20.1278 6.14942 19.9021 6.14942C19.3379 6.14942 18.8302 6.48792 18.8302 6.93926C18.8302 7.3906 18.8302 7.16493 18.8866 7.27777L18.3788 7.78552C18.2096 7.55985 18.0967 7.27777 18.0967 6.99568C18.0967 6.71359 18.0967 6.82643 18.0967 6.71359ZM17.5326 10.2679L17.9275 10.8321C18.7738 10.4371 19.7893 10.2115 20.8048 10.2115C21.8203 10.2115 22.8358 10.4936 23.6821 10.8321L24.077 10.2679C23.1179 9.81655 21.9896 9.53447 20.8048 9.53447C19.62 9.53447 18.4917 9.81655 17.5326 10.2679ZM20.3534 4.62614C20.3534 4.40047 20.5791 4.1748 20.8048 4.1748C21.0305 4.1748 21.2561 4.40047 21.2561 4.62614C21.2561 4.85181 21.0305 5.07748 20.8048 5.07748C20.5791 5.07748 20.3534 4.85181 20.3534 4.62614ZM17.5326 9.70372C17.3633 9.70372 17.2505 9.59088 17.1377 9.36521C17.2505 9.19596 17.4197 9.13954 17.589 9.13954C17.7582 9.13954 17.9275 9.3088 17.9839 9.47805C17.8711 9.6473 17.7018 9.70372 17.5326 9.70372ZM17.1941 8.91387C17.1377 8.74462 16.9684 8.6882 16.7427 8.63179C16.6299 8.80104 16.5735 8.97029 16.6863 9.13954C16.7427 9.3088 16.912 9.36521 17.0812 9.42163C17.1941 9.25238 17.2505 9.08313 17.1377 8.91387M19.2251 9.19596C19.0558 9.19596 18.943 9.02671 18.8866 8.80104C19.0558 8.6882 19.2251 8.63179 19.3944 8.6882C19.5636 8.6882 19.6764 8.91387 19.7329 9.08313C19.5636 9.19596 19.3944 9.25238 19.2251 9.19596ZM18.7738 9.3088C18.8866 9.19596 18.943 9.02671 18.8866 8.80104C18.7173 8.80104 18.4917 8.80104 18.3788 8.85746C18.266 8.97029 18.2096 9.13954 18.266 9.36521C18.4353 9.42163 18.6609 9.36521 18.7738 9.3088ZM19.0558 8.3497C19.0558 8.18045 18.8866 8.06761 18.7173 8.01119C18.5481 8.12403 18.4917 8.29328 18.5481 8.46253C18.5481 8.63179 18.7173 8.74462 18.8866 8.80104C19.0558 8.6882 19.1123 8.51895 19.0558 8.3497ZM24.0206 9.70372C24.1898 9.70372 24.3027 9.59088 24.4155 9.36521C24.3027 9.19596 24.1334 9.13954 23.9642 9.13954C23.7949 9.13954 23.6821 9.3088 23.5692 9.47805C23.6821 9.6473 23.8513 9.70372 24.0206 9.70372ZM24.3027 8.91387C24.3591 8.74462 24.5283 8.6882 24.6976 8.63179C24.8104 8.80104 24.8668 8.97029 24.8104 9.13954C24.754 9.3088 24.5848 9.36521 24.3591 9.42163C24.2463 9.25238 24.1898 9.08313 24.3027 8.91387ZM22.3281 9.19596C22.4973 9.19596 22.6101 9.02671 22.6666 8.80104C22.4973 8.6882 22.3281 8.63179 22.1588 8.6882C21.9896 8.6882 21.8767 8.91387 21.8203 9.08313C21.9896 9.19596 22.1588 9.25238 22.3281 9.19596ZM22.7794 9.3088C22.6666 9.19596 22.6101 9.02671 22.6666 8.80104C22.8358 8.80104 23.0615 8.80104 23.1743 8.85746C23.2872 8.97029 23.3436 9.13954 23.2872 9.36521C23.1179 9.42163 22.8922 9.36521 22.7794 9.3088ZM22.4409 8.3497C22.4409 8.18045 22.6101 8.06761 22.7794 8.01119C22.8922 8.12403 23.0051 8.29328 22.9487 8.46253C22.9487 8.63179 22.7794 8.74462 22.6101 8.80104C22.4409 8.6882 22.3845 8.51895 22.4409 8.3497ZM20.5791 9.08313C20.7484 9.02671 20.8048 8.85746 20.8048 8.63179C20.6355 8.51895 20.4663 8.51895 20.297 8.63179C20.1278 8.6882 20.0714 8.85746 20.0714 9.08313C20.2406 9.19596 20.4099 9.19596 20.5791 9.08313ZM21.0305 9.08313C20.8612 9.02671 20.8048 8.85746 20.8048 8.63179C20.974 8.51895 21.1433 8.51895 21.3125 8.63179C21.4818 8.6882 21.5382 8.85746 21.5382 9.08313C21.369 9.19596 21.1997 9.19596 21.0305 9.08313ZM20.5227 8.18045C20.5227 8.01119 20.6355 7.84194 20.8048 7.72911C20.974 7.84194 21.0869 8.01119 21.0869 8.18045C21.0869 8.3497 20.974 8.51895 20.8048 8.57537C20.6355 8.46253 20.5227 8.29328 20.5227 8.18045Z" fill="white"/>
<path d="M24.1338 28.3784V25.8389H26.6726L24.1338 28.3784Z" fill="white"/>
<path d="M14.8809 18.1109L17.4196 15.5713V18.1109H14.8809Z" fill="white"/>
<path d="M24.1338 22.1157V23.4702V24.7682H25.9391H27.7445L30.3961 22.1157H24.1338Z" fill="white"/>
<path d="M13.8088 19.1821L11.1572 21.8346H17.4196V19.1821H13.8088Z" fill="white"/>
<path d="M101.426 25.1058C101.426 26.0085 100.749 26.5163 99.8459 26.5163C98.9432 26.5163 98.9432 26.2342 98.9432 25.7264C98.9432 25.2187 99.3946 24.9366 99.8459 24.9366L101.426 24.8237V25.1058ZM103.4 27.4754V26.4034C103.4 26.4034 103.287 26.4034 103.231 26.4034C103.005 26.4034 102.892 26.2906 102.892 26.0085V23.6954C102.892 23.3005 102.892 22.8491 102.723 22.4542C102.385 21.5515 101.482 21.213 100.41 21.213C99.3381 21.213 97.9277 21.8336 97.8713 23.2441H99.2817C99.2817 22.6799 99.7331 22.3414 100.41 22.3414C101.087 22.3414 101.482 22.7363 101.482 23.3005V23.6954L99.6767 23.8082C98.4919 23.8646 97.5892 24.5417 97.5892 25.7264C97.5892 26.9112 98.3226 27.6446 99.8459 27.6446C101.369 27.6446 101.426 27.1933 101.708 26.7419C101.708 27.1933 102.103 27.5882 102.78 27.5882C103.457 27.5882 103.287 27.5318 103.513 27.4189L103.4 27.4754ZM96.2916 27.5318V23.4133C96.2916 22.1157 95.5018 21.213 94.2042 21.213C92.9065 21.213 92.7373 21.4951 92.3988 22.1721L92.286 21.3823H91.0448V27.5318H92.5116V24.993C92.5116 24.4852 92.5116 23.8082 92.7373 23.3569C92.963 22.9055 93.3015 22.567 93.8092 22.567C94.5991 22.567 94.8247 23.0184 94.8247 23.7518V27.5318H96.2916ZM88.0546 24.4288C88.0546 24.993 87.9982 25.6136 87.6033 26.0085C87.3776 26.2342 87.0956 26.4034 86.6442 26.4034C86.1929 26.4034 85.9108 26.2342 85.6851 26.0085C85.3466 25.6136 85.2338 25.0494 85.2338 24.4288C85.2338 23.8082 85.2902 23.244 85.6851 22.8491C85.9108 22.6235 86.1929 22.4542 86.6442 22.4542C87.0956 22.4542 87.3776 22.6235 87.6033 22.8491C87.9418 23.244 88.0546 23.8082 88.0546 24.4288ZM89.5779 24.4288C89.5779 23.3569 89.2958 22.7363 88.8445 22.1721C88.3932 21.6644 87.6033 21.213 86.7006 21.213C85.798 21.213 84.9517 21.6644 84.5568 22.1721C84.1054 22.7363 83.8233 23.4133 83.8233 24.4288C83.8233 25.4443 84.1054 26.1213 84.5568 26.6855C85.0081 27.1933 85.798 27.6446 86.7006 27.6446C87.6033 27.6446 88.4496 27.1933 88.8445 26.6855C89.2958 26.1213 89.5779 25.4443 89.5779 24.4288ZM83.0335 27.5318V26.2906C82.9771 26.2906 82.9207 26.2906 82.8078 26.2906C82.3001 26.2906 82.1872 26.0649 82.1872 25.67V18.8999H80.664V25.8957C80.664 27.0804 81.341 27.5318 82.3565 27.5318C83.372 27.5318 82.695 27.5318 83.0335 27.4754M77.8431 23.8646H75.1915C75.1915 23.4697 75.3043 23.1876 75.53 22.9055C75.7556 22.6235 76.0941 22.4542 76.5455 22.4542C76.9968 22.4542 77.2789 22.6235 77.5046 22.7927C77.7303 23.0748 77.8995 23.4133 77.8995 23.8646M79.3099 24.4852C79.3099 23.6954 79.2535 23.0184 78.8022 22.3414C78.2944 21.5515 77.4482 21.213 76.5455 21.213C75.6428 21.213 75.0222 21.4951 74.5709 22.0029C73.9503 22.6235 73.6682 23.4697 73.6682 24.4852C73.6682 25.5008 74.0067 26.347 74.6273 26.9676C75.135 27.4189 75.7556 27.701 76.6019 27.701C77.4482 27.701 78.1816 27.4754 78.6893 26.8548C78.915 26.5727 79.1971 26.0649 79.1971 25.7264H77.7867C77.7303 25.9521 77.6174 26.1213 77.5046 26.2342C77.2789 26.4598 77.0532 26.5163 76.6019 26.5163C76.1506 26.5163 75.9249 26.347 75.6992 26.1213C75.4171 25.8393 75.2479 25.3879 75.2479 24.9366H79.3664C79.3664 24.8237 79.3664 24.5417 79.3664 24.5417M72.7655 25.3315H71.2987C71.2987 25.5572 71.2422 25.7264 71.1294 25.8957C70.9602 26.1778 70.6217 26.347 70.1703 26.347C69.719 26.347 69.4933 26.1778 69.2676 25.9521C68.9291 25.5572 68.8727 24.993 68.8727 24.3724C68.8727 23.7518 68.9291 23.1876 69.2676 22.7927C69.4933 22.567 69.7754 22.3978 70.1703 22.3978C70.5652 22.3978 70.9602 22.567 71.1294 22.8491C71.2422 23.0184 71.2987 23.1876 71.2987 23.4133H72.7655C72.7655 22.9055 72.5963 22.4542 72.3142 22.0593C71.8628 21.5515 71.1294 21.1002 70.2267 21.1002C69.324 21.1002 68.4778 21.5515 68.0829 22.0593C67.6315 22.6235 67.4059 23.4133 67.4059 24.316C67.4059 25.2187 67.6315 26.0085 68.0829 26.5727C68.5342 27.0804 69.2676 27.5318 70.2267 27.5318C71.1858 27.5318 71.9193 27.0804 72.3142 26.5727C72.5963 26.1778 72.7655 25.7264 72.7655 25.2187M66.8981 22.7363V21.3259C66.7288 21.3259 66.616 21.3259 66.4468 21.3259C65.7133 21.3259 64.9799 21.6079 64.6978 22.3414L64.585 21.4387H63.3438V27.5882H64.8671V24.4852C64.8671 23.4697 65.4312 22.7363 66.4468 22.7363C67.4623 22.7363 66.7853 22.7363 66.9545 22.7927M60.0152 25.1058C60.0152 26.0085 59.3382 26.5163 58.4355 26.5163C57.5328 26.5163 57.5328 26.2342 57.5328 25.7264C57.5328 25.2187 57.9841 24.9366 58.4355 24.9366L60.0152 24.8237V25.1058ZM61.9898 27.4754V26.4034C61.9898 26.4034 61.8769 26.4034 61.8205 26.4034C61.5949 26.4034 61.482 26.2906 61.482 26.0085V23.6954C61.482 23.3005 61.482 22.8491 61.3128 22.4542C60.9743 21.5515 60.0716 21.213 58.9996 21.213C57.9277 21.213 56.5173 21.8336 56.4609 23.2441H57.8713C57.8713 22.6799 58.3226 22.3414 58.9996 22.3414C59.6767 22.3414 60.0716 22.7363 60.0716 23.3005V23.6954L58.2662 23.8082C57.0815 23.8646 56.1788 24.5417 56.1788 25.7264C56.1788 26.9112 56.9122 27.6446 58.4355 27.6446C59.9587 27.6446 60.0152 27.1933 60.2973 26.7419C60.2973 27.1933 60.6922 27.5882 61.3692 27.5882C62.0462 27.5882 61.8769 27.5318 62.1026 27.4189L61.9898 27.4754ZM53.6964 25.0494C53.6964 25.8957 52.9066 26.1778 52.2296 26.1778H50.3678V23.8082H52.286C53.0758 23.8082 53.7528 24.1467 53.7528 25.0494M53.5272 21.4951C53.5272 22.285 52.963 22.567 52.2296 22.567H50.3114V20.4232H52.1731C52.8501 20.4232 53.4707 20.7053 53.4707 21.4951M55.2197 25.1058C55.2197 24.316 54.8248 23.5826 54.0349 23.1876C54.7683 22.8491 55.0504 22.1157 55.0504 21.3823C55.0504 20.6488 54.7119 19.9718 54.0913 19.5769C53.5272 19.182 52.7937 19.1256 52.1167 19.1256H48.7881V27.5318H52.1167C52.9066 27.5318 53.6964 27.4754 54.3734 26.9676C54.994 26.5163 55.2197 25.8393 55.2197 25.1058Z" fill="white"/>
<path d="M102.272 13.2015H100.354C100.354 12.9194 100.41 12.6937 100.58 12.5245C100.749 12.2988 100.975 12.186 101.313 12.186C101.652 12.186 101.821 12.2988 101.99 12.4681C102.159 12.6373 102.272 12.9194 102.272 13.2579M103.288 13.6528C103.288 13.0887 103.231 12.5809 102.893 12.1296C102.498 11.5654 101.934 11.3397 101.257 11.3397C100.58 11.3397 100.185 11.5654 99.8462 11.9039C99.3949 12.3552 99.2256 12.9758 99.2256 13.6528C99.2256 14.3298 99.4513 15.0069 99.9026 15.4018C100.241 15.7403 100.692 15.966 101.313 15.966C101.934 15.966 102.441 15.7967 102.78 15.3454C102.949 15.1197 103.118 14.7812 103.175 14.4991H102.159C102.159 14.6684 102.047 14.7812 101.934 14.894C101.764 15.0633 101.595 15.1197 101.313 15.1197C101.031 15.1197 100.805 15.0069 100.636 14.8376C100.41 14.6119 100.298 14.3298 100.298 13.9913H103.288C103.288 13.8785 103.288 13.7093 103.288 13.7093M97.6459 13.6528C97.6459 14.2734 97.4767 15.0633 96.6304 15.0633C95.7842 15.0633 96.0662 14.894 95.897 14.7248C95.6713 14.4427 95.6149 14.0478 95.6149 13.6528C95.6149 13.2579 95.6713 12.863 95.897 12.5809C96.0662 12.4117 96.2919 12.2424 96.6304 12.2424C97.4767 12.2424 97.6459 13.0322 97.6459 13.6528ZM98.6614 15.8531V9.70361H97.5895V11.7346C97.4203 11.509 96.9689 11.3397 96.4048 11.3397C95.8406 11.3397 95.6149 11.4526 95.3328 11.6782C94.8251 12.1296 94.543 12.8066 94.543 13.6528C94.543 14.4991 94.8251 15.1761 95.3328 15.571C95.6149 15.7967 95.9534 15.966 96.4048 15.966C96.8561 15.966 97.3638 15.7967 97.6459 15.4018V15.9095H98.605L98.6614 15.8531ZM92.3427 15.7967V14.894C92.0606 14.894 91.8913 14.894 91.6657 14.894C91.3272 14.894 91.1579 14.7248 91.1579 14.3863V12.2424H92.2863V11.3397H91.1579V9.92928L90.086 10.2114V11.3397H89.2961V12.2424H90.086V14.4991C90.086 15.3454 90.5373 15.8531 91.44 15.8531C92.3427 15.8531 92.0606 15.8531 92.3427 15.7403M88.9012 15.8531V12.9194C88.9012 12.0167 88.3371 11.3397 87.378 11.3397C86.4189 11.3397 86.3624 11.5654 86.0803 12.0167V11.4526H85.1213V15.9095H86.1932V14.1042C86.1932 13.7093 86.1932 13.2579 86.3624 12.9194C86.5317 12.5809 86.7574 12.3552 87.1523 12.3552C87.7165 12.3552 87.8857 12.6937 87.8857 13.2015V15.9095H88.9576L88.9012 15.8531ZM83.4287 13.2015H81.5105C81.5105 12.9194 81.567 12.6937 81.7362 12.5245C81.9055 12.2988 82.1311 12.186 82.4696 12.186C82.8081 12.186 82.9774 12.2988 83.1466 12.4681C83.3159 12.6373 83.4287 12.9194 83.4287 13.2579M84.4442 13.6528C84.4442 13.0887 84.3878 12.5809 84.0493 12.1296C83.6544 11.5654 83.0902 11.3397 82.4132 11.3397C81.7362 11.3397 81.3413 11.5654 81.0028 11.9039C80.5514 12.3552 80.3822 12.9758 80.3822 13.6528C80.3822 14.3298 80.6079 15.0069 81.0592 15.4018C81.3977 15.7403 81.849 15.966 82.4696 15.966C83.0902 15.966 83.598 15.7967 83.9365 15.3454C84.1057 15.1197 84.275 14.7812 84.3314 14.4991H83.3159C83.3159 14.6684 83.2031 14.7812 83.0902 14.894C82.921 15.0633 82.7517 15.1197 82.4696 15.1197C82.1875 15.1197 81.9619 15.0069 81.7926 14.8376C81.5669 14.6119 81.4541 14.3298 81.4541 13.9913H84.4442C84.4442 13.8785 84.4442 13.7093 84.4442 13.7093M79.818 15.8531V12.863C79.818 11.9603 79.3102 11.3397 78.4076 11.3397C77.5049 11.3397 77.3356 11.6218 77.0536 12.0731C76.8279 11.6218 76.433 11.3397 75.7559 11.3397C75.0789 11.3397 74.7404 11.6218 74.5148 12.0167L74.4019 11.4526H73.4993V15.9095H74.5712V13.4836C74.5712 12.9194 74.8533 12.2988 75.4739 12.2988C76.0945 12.2988 76.1509 12.6373 76.1509 13.1451V15.9095H77.2228V13.4836C77.2228 12.9194 77.5049 12.2988 78.0691 12.2988C78.6332 12.2988 78.7461 12.6373 78.7461 13.1451V15.9095H79.818V15.8531ZM71.5246 14.1042C71.5246 14.7812 71.0733 15.1197 70.3963 15.1197C69.7193 15.1197 69.7757 14.894 69.7757 14.5555C69.7757 14.217 70.1142 13.9913 70.3963 13.9913L71.5246 13.8785V14.1042ZM72.9351 15.7967V15.0069C72.9351 15.0069 72.8787 15.0069 72.8222 15.0069C72.653 15.0069 72.5966 14.9504 72.5966 14.7248V13.0887C72.5966 12.8066 72.5966 12.4681 72.4837 12.186C72.2017 11.509 71.5811 11.2833 70.8476 11.2833C70.1142 11.2833 69.0423 11.7346 68.9859 12.7502H70.0014C70.0014 12.3552 70.3399 12.1296 70.7912 12.1296C71.2426 12.1296 71.5246 12.4117 71.5246 12.8066V13.0887L70.227 13.2015C69.3808 13.2579 68.7038 13.7657 68.7038 14.6119C68.7038 15.4582 69.2679 16.0224 70.2835 16.0224C71.299 16.0224 71.4118 15.7403 71.6375 15.3454C71.6375 15.6839 71.9196 15.966 72.3709 15.966C72.8222 15.966 72.7094 15.966 72.8787 15.8531L72.9351 15.7967ZM68.5345 15.7967V14.894C68.2524 14.894 68.0832 14.894 67.8575 14.894C67.519 14.894 67.3497 14.7248 67.3497 14.3863V12.2424H68.4781V11.3397H67.3497V9.92928L66.2778 10.2114V11.3397H65.488V12.2424H66.2778V14.4991C66.2778 15.3454 66.7292 15.8531 67.6318 15.8531C68.5345 15.8531 68.2524 15.8531 68.5345 15.7403M65.093 15.8531V12.9194C65.093 12.0167 64.5289 11.3397 63.5698 11.3397C62.6107 11.3397 62.5543 11.5654 62.2722 12.0167V11.4526H61.3131V15.9095H62.385V14.1042C62.385 13.7093 62.385 13.2579 62.5543 12.9194C62.7235 12.5809 62.9492 12.3552 63.3441 12.3552C63.9083 12.3552 64.0775 12.6937 64.0775 13.2015V15.9095H65.1495L65.093 15.8531ZM60.2976 15.8531V11.3961H59.2256V13.7657C59.2256 14.1042 59.1692 14.4991 58.8871 14.7812C58.7743 14.894 58.605 15.0069 58.323 15.0069C57.7588 15.0069 57.5331 14.6684 57.5331 14.1606V11.4526H56.4612V14.3863C56.4612 15.3454 57.0253 15.966 57.9844 15.966C58.9435 15.966 59.0564 15.6839 59.282 15.2889V15.8531H60.2411H60.2976ZM55.6149 16.4737V11.4526H54.543V16.3045C54.543 16.5865 54.3737 16.7558 54.0352 16.7558C53.6967 16.7558 53.8096 16.7558 53.5275 16.7558V17.6585C53.6967 17.6585 53.866 17.7149 54.0352 17.7713C54.1481 17.7713 54.3173 17.7713 54.4301 17.7713C55.22 17.7713 55.6713 17.32 55.6713 16.5301M55.6713 9.70361H54.543V10.7755H55.6713V9.70361ZM52.1734 13.7093H50.4809L51.3272 11.1705L52.1734 13.7093ZM54.0916 15.8531L51.9478 9.81645H50.763L48.6191 15.8531H49.7475L50.1424 14.6684H52.5684L52.9633 15.8531H54.0916Z" fill="white"/>
</g>
<defs>
<clipPath id="clip0_480_64430">
<rect width="117.179" height="40" fill="white" transform="translate(0.889648)"/>
</clipPath>
</defs>
</svg>
