<svg preserveAspectRatio="none" width="100%" height="100%" overflow="visible" style="display: block;" viewBox="0 0 395 559" fill="none" xmlns="http://www.w3.org/2000/svg">
<path id="path2" opacity="0.05" d="M196.868 0.0535388C198.261 -0.237817 198.407 0.709085 198.503 1.70455C221.932 74.7499 255.852 122.569 299.899 172.16C342.044 219.602 390.779 264.532 394.765 347.532C397.89 412.759 369.386 465.494 339.161 498.308C305.435 534.946 250.679 560.161 193.597 558.959C134.916 557.708 86.8837 531.778 52.9399 493.404C19.1293 455.188 -4.10562 406.81 0.606786 340.964C7.52396 244.185 80.0877 196.925 126.545 136.105C156.746 96.5287 177.825 55.5932 196.868 0.0535388ZM75.8356 360.655C76.4171 404.832 100.258 445.16 133.087 465.555C179.399 494.314 243.822 486.945 281.921 449.142C302.031 429.208 315.684 401.384 319.536 360.655C268.681 360.655 257.075 359.902 197.983 359.902C197.983 319.464 198.516 276.502 198.516 236.088C127.854 235.906 74.9755 294.274 75.8356 360.655Z" fill="var(--fill-0, #3D3D3D)"/>
</svg>
