<svg width="57" height="56" viewBox="0 0 57 56" fill="none" xmlns="http://www.w3.org/2000/svg">
<mask id="path-1-inside-1_327_5851" fill="white">
<path fill-rule="evenodd" clip-rule="evenodd" d="M19 14L6.74145 25.4413C5.25894 26.825 5.25894 29.175 6.74146 30.5587L19 42"/>
</mask>
<path d="M21.3881 16.5587C22.8012 15.2398 22.8776 13.025 21.5587 11.6119C20.2398 10.1988 18.025 10.1224 16.6119 11.4413L21.3881 16.5587ZM16.6119 44.5587C18.025 45.8776 20.2398 45.8012 21.5587 44.3881C22.8776 42.975 22.8012 40.7602 21.3881 39.4413L16.6119 44.5587ZM6.74146 30.5587L4.35334 33.1174L6.74146 30.5587ZM16.6119 11.4413L4.35334 22.8826L9.12957 28L21.3881 16.5587L16.6119 11.4413ZM4.35334 33.1174L16.6119 44.5587L21.3881 39.4413L9.12957 28L4.35334 33.1174ZM4.35334 22.8826C1.38831 25.65 1.38832 30.35 4.35334 33.1174L9.12957 28L9.12957 28L4.35334 22.8826Z" fill="#3D3D3D" mask="url(#path-1-inside-1_327_5851)"/>
<mask id="path-3-inside-2_327_5851" fill="white">
<path fill-rule="evenodd" clip-rule="evenodd" d="M38 42L50.2585 30.5587C51.7411 29.175 51.7411 26.825 50.2585 25.4413L38 14"/>
</mask>
<path d="M35.6119 39.4413C34.1988 40.7602 34.1224 42.975 35.4413 44.3881C36.7602 45.8012 38.975 45.8776 40.3881 44.5587L35.6119 39.4413ZM40.3881 11.4413C38.975 10.1224 36.7602 10.1988 35.4413 11.6119C34.1224 13.025 34.1988 15.2398 35.6119 16.5587L40.3881 11.4413ZM50.2585 25.4413L52.6467 22.8826L50.2585 25.4413ZM40.3881 44.5587L52.6467 33.1174L47.8704 28L35.6119 39.4413L40.3881 44.5587ZM52.6467 22.8826L40.3881 11.4413L35.6119 16.5587L47.8704 28L52.6467 22.8826ZM52.6467 33.1174C55.6117 30.35 55.6117 25.65 52.6467 22.8826L47.8704 28L47.8704 28L52.6467 33.1174Z" fill="#3D3D3D" mask="url(#path-3-inside-2_327_5851)"/>
<path d="M32 20.9258L25 35.0747" stroke="#3D3D3D" stroke-width="3.5" stroke-linecap="round"/>
</svg>
