<svg width="33" height="32" viewBox="0 0 33 32" fill="none" xmlns="http://www.w3.org/2000/svg">
<path fill-rule="evenodd" clip-rule="evenodd" d="M16.9138 5.28641C16.6509 5.1669 16.3491 5.1669 16.0862 5.28641L7.91661 8.99986L16.5 12.9014L25.0834 8.99986L16.9138 5.28641ZM26.5 10.5529L17.5 14.6438V26.4469L25.9138 22.6224C26.2708 22.4601 26.5 22.1042 26.5 21.712V10.5529ZM15.5 26.4469V14.6438L6.5 10.5529V21.712C6.5 22.1042 6.7292 22.4601 7.0862 22.6224L15.5 26.4469ZM15.2586 3.46568C16.0474 3.10714 16.9526 3.10714 17.7414 3.46568L26.7414 7.55659C27.8124 8.0434 28.5 9.11126 28.5 10.2877V21.712C28.5 22.8885 27.8124 23.9563 26.7414 24.4431L17.7414 28.534C16.9526 28.8926 16.0474 28.8926 15.2586 28.534L6.25859 24.4431C5.18761 23.9563 4.5 22.8885 4.5 21.712V10.2877C4.5 9.11126 5.18761 8.0434 6.25859 7.55659L15.2586 3.46568Z" fill="#462949"/>
</svg>
